<mxfile host="Electron" agent="Mozilla/5.0 (Macintosh; Intel Mac OS X 10_15_7) AppleWebKit/537.36 (KHTML, like Gecko) draw.io/27.0.9 Chrome/134.0.6998.205 Electron/35.4.0 Safari/537.36" version="27.0.9">
  <diagram name="Page-1" id="c7558073-3199-34d8-9f00-42111426c3f3">
    <mxGraphModel dx="753" dy="583" grid="1" gridSize="10" guides="1" tooltips="1" connect="1" arrows="1" fold="1" page="1" pageScale="1" pageWidth="826" pageHeight="1169" background="none" math="1" shadow="0">
      <root>
        <mxCell id="0" />
        <mxCell id="1" parent="0" />
        <mxCell id="t303TAb1Uz-uj7NbguCg-5" value="" style="whiteSpace=wrap;html=1;aspect=fixed;fillColor=light-dark(#E6E6E6,#272727);fontFamily=Merriweather;" parent="1" vertex="1">
          <mxGeometry x="374" y="140.8" width="20" height="20" as="geometry" />
        </mxCell>
        <mxCell id="t303TAb1Uz-uj7NbguCg-6" value="" style="whiteSpace=wrap;html=1;aspect=fixed;fillColor=light-dark(#E6E6E6,#272727);fontFamily=Merriweather;" parent="1" vertex="1">
          <mxGeometry x="394" y="110.05000000000001" width="20" height="20" as="geometry" />
        </mxCell>
        <mxCell id="t303TAb1Uz-uj7NbguCg-7" value="" style="whiteSpace=wrap;html=1;aspect=fixed;fillColor=light-dark(#a76119, #272727);fontFamily=Merriweather;" parent="1" vertex="1">
          <mxGeometry x="166" y="142.8" width="20" height="20" as="geometry" />
        </mxCell>
        <mxCell id="t303TAb1Uz-uj7NbguCg-8" value="" style="whiteSpace=wrap;html=1;aspect=fixed;fillColor=#038571;fontFamily=Merriweather;" parent="1" vertex="1">
          <mxGeometry x="186" y="142.8" width="20" height="20" as="geometry" />
        </mxCell>
        <mxCell id="t303TAb1Uz-uj7NbguCg-9" value="" style="whiteSpace=wrap;html=1;aspect=fixed;fillColor=#E6E6E6;fontFamily=Merriweather;" parent="1" vertex="1">
          <mxGeometry x="206" y="142.8" width="20" height="20" as="geometry" />
        </mxCell>
        <mxCell id="t303TAb1Uz-uj7NbguCg-10" value="" style="whiteSpace=wrap;html=1;aspect=fixed;fillColor=#A76119;fontFamily=Merriweather;" parent="1" vertex="1">
          <mxGeometry x="226" y="142.8" width="20" height="20" as="geometry" />
        </mxCell>
        <mxCell id="t303TAb1Uz-uj7NbguCg-15" value="&lt;div style=&quot;line-height: 100%;&quot;&gt;Dispersible habitat&lt;/div&gt;" style="text;align=center;verticalAlign=middle;rounded=0;fontFamily=Merriweather;spacing=2;horizontal=1;whiteSpace=wrap;html=1;imageHeight=24;imageWidth=24;strokeOpacity=100;arcSize=12;" parent="1" vertex="1">
          <mxGeometry x="159" y="164.8" width="94" height="11.2" as="geometry" />
        </mxCell>
        <mxCell id="t303TAb1Uz-uj7NbguCg-16" value="" style="endArrow=classic;html=1;rounded=0;strokeWidth=2;endSize=2;startSize=2;" parent="1" edge="1">
          <mxGeometry width="50" height="50" relative="1" as="geometry">
            <mxPoint x="252" y="136.2" as="sourcePoint" />
            <mxPoint x="292" y="136.11" as="targetPoint" />
          </mxGeometry>
        </mxCell>
        <mxCell id="t303TAb1Uz-uj7NbguCg-17" value="&lt;font style=&quot;font-size: 12px;&quot; face=&quot;Merriweather&quot;&gt;Species&lt;/font&gt;" style="edgeLabel;html=1;align=center;verticalAlign=middle;resizable=0;points=[];rotation=-90;" parent="t303TAb1Uz-uj7NbguCg-16" vertex="1" connectable="0">
          <mxGeometry x="-0.2039" y="-1" relative="1" as="geometry">
            <mxPoint x="1" y="-1" as="offset" />
          </mxGeometry>
        </mxCell>
        <mxCell id="t303TAb1Uz-uj7NbguCg-18" value="" style="whiteSpace=wrap;html=1;aspect=fixed;fillColor=light-dark(#E6E6E6,#272727);fontFamily=Merriweather;" parent="1" vertex="1">
          <mxGeometry x="334" y="110.05000000000001" width="20" height="20" as="geometry" />
        </mxCell>
        <mxCell id="t303TAb1Uz-uj7NbguCg-19" value="" style="whiteSpace=wrap;html=1;aspect=fixed;fillColor=light-dark(#99CDC6,#272727);fontFamily=Merriweather;strokeWidth=2;" parent="1" vertex="1">
          <mxGeometry x="374" y="110.05000000000001" width="20" height="20" as="geometry" />
        </mxCell>
        <mxCell id="t303TAb1Uz-uj7NbguCg-20" value="" style="whiteSpace=wrap;html=1;aspect=fixed;fillColor=light-dark(#038571,#272727);fontFamily=Merriweather;strokeWidth=2;" parent="1" vertex="1">
          <mxGeometry x="354" y="110.05000000000001" width="20" height="20" as="geometry" />
        </mxCell>
        <mxCell id="t303TAb1Uz-uj7NbguCg-21" value="" style="whiteSpace=wrap;html=1;aspect=fixed;fillColor=light-dark(#A76119,#272727);fontFamily=Merriweather;strokeWidth=2;" parent="1" vertex="1">
          <mxGeometry x="334" y="140.8" width="20" height="20" as="geometry" />
        </mxCell>
        <mxCell id="t303TAb1Uz-uj7NbguCg-22" value="" style="whiteSpace=wrap;html=1;aspect=fixed;fillColor=light-dark(#BC8750,#272727);fontFamily=Merriweather;strokeWidth=2;" parent="1" vertex="1">
          <mxGeometry x="354" y="140.8" width="20" height="20" as="geometry" />
        </mxCell>
        <mxCell id="t303TAb1Uz-uj7NbguCg-23" value="" style="whiteSpace=wrap;html=1;aspect=fixed;fillColor=light-dark(#DCC0A2,#272727);fontFamily=Merriweather;strokeWidth=2;" parent="1" vertex="1">
          <mxGeometry x="394" y="140.8" width="20" height="20" as="geometry" />
        </mxCell>
        <mxCell id="t303TAb1Uz-uj7NbguCg-24" value="&lt;div style=&quot;line-height: 100%;&quot;&gt;% of species&lt;/div&gt;" style="text;align=center;verticalAlign=middle;rounded=0;fontFamily=Merriweather;spacing=2;horizontal=1;whiteSpace=wrap;html=1;imageHeight=24;imageWidth=24;strokeOpacity=100;arcSize=12;" parent="1" vertex="1">
          <mxGeometry x="334" y="162.8" width="80" height="14" as="geometry" />
        </mxCell>
        <mxCell id="t303TAb1Uz-uj7NbguCg-25" value="" style="whiteSpace=wrap;html=1;aspect=fixed;fillColor=light-dark(#4D4D4D,#272727);fontFamily=Merriweather;strokeColor=none;" parent="1" vertex="1">
          <mxGeometry x="294" y="120.82000000000001" width="10" height="10" as="geometry" />
        </mxCell>
        <mxCell id="t303TAb1Uz-uj7NbguCg-26" value="" style="whiteSpace=wrap;html=1;aspect=fixed;fillColor=light-dark(#808080,#272727);fontFamily=Merriweather;strokeColor=none;" parent="1" vertex="1">
          <mxGeometry x="294" y="130.82" width="10" height="10" as="geometry" />
        </mxCell>
        <mxCell id="t303TAb1Uz-uj7NbguCg-27" value="" style="whiteSpace=wrap;html=1;aspect=fixed;fillColor=light-dark(#B3B3B3,#272727);fontFamily=Merriweather;strokeColor=none;" parent="1" vertex="1">
          <mxGeometry x="294" y="140.82" width="10" height="10" as="geometry" />
        </mxCell>
        <mxCell id="t303TAb1Uz-uj7NbguCg-28" value="High" style="text;html=1;align=center;verticalAlign=middle;whiteSpace=wrap;rounded=0;fontFamily=Merriweather;" parent="1" vertex="1">
          <mxGeometry x="304" y="121.82000000000001" width="30" height="8" as="geometry" />
        </mxCell>
        <mxCell id="t303TAb1Uz-uj7NbguCg-29" value="Low" style="text;html=1;align=center;verticalAlign=middle;whiteSpace=wrap;rounded=0;fontFamily=Merriweather;" parent="1" vertex="1">
          <mxGeometry x="304" y="141.82" width="29.5" height="8" as="geometry" />
        </mxCell>
        <mxCell id="t303TAb1Uz-uj7NbguCg-30" value="Area" style="text;html=1;align=center;verticalAlign=middle;whiteSpace=wrap;rounded=0;fontFamily=Merriweather;spacing=0;" parent="1" vertex="1">
          <mxGeometry x="463" y="95.75" width="27" height="18" as="geometry" />
        </mxCell>
        <mxCell id="t303TAb1Uz-uj7NbguCg-31" value="" style="shape=image;verticalLabelPosition=bottom;labelBackgroundColor=default;verticalAlign=top;aspect=fixed;imageAspect=0;image=data:image/png,iVBORw0KGgoAAAANSUhEUgAAAgAAAAIACAYAAAD0eNT6AAAACXBIWXMAAA8eAAAPHgH67H1EAAAAGXRFWHRTb2Z0d2FyZQB3d3cuaW5rc2NhcGUub3Jnm+48GgAAIABJREFUeJzt3Xm0JVV96PHvbbqZGxEQZJAGGcUpKGrAGUUI4APihDMO0RCfIfE9o8sYp0QTNWa9BJ7DMjyJUQyDUZ8DKA6AIEbgiUwKIiCTINDMkz29P3Zfaejuc0/Vb1ftGr6fteq/Pqf3rnNv1ffWqQEkSZIkSZIkSZIkSZIkSZIkSZIkSZIkSZIkSZIkSZIkSZIkSZIkSZIkSZIkSZIkSZIkSZIkSZIkSZIkSZIkSZIkSZIkSZIkSZIkSZIkSZIkSZIkSZIkSZIkSZIkSZIkSZIkSZIkSZIkSZIkSZIkSZIkSZIkSZIkSZIkSZIkSd0yU3oAHfQoYG9gG+AW4Dzg6pIDkiRJzdkc+DzwALBilWUZcAqwU7mhSZKkJuwCXMdDd/wPX+4E9i01QEmSlNcmwM+ZvPOfXW4Fdi4zTEmSlNPnmG7nP7ucA6xTZKSSJCmLg6m2859d3lVisJIkKW5T4FrqBcD9wBPbH7IkSYr6IvV2/rPL/wMWtD5qSZJU238jtvOfXd7b9sAlSVI9WwA3kicAlgBPbXf4kiSpjhPJs/OfXS4A1m11BpIkqZJXkHfnP7t8sM1JSJKk6T0KuIlmAmAJ8LT2piJJkqZ1Ms3s/GeXS4H1W5uNJEma02toduc/u/x9WxOSJEmTbU26h38bAbAMeFY705IkSZN8hXZ2/rPLL4ANWpmZJElaozfS7s5/dvnHNiYnSZJWty2wmDIBsAx4TvNTlCRJq5oBTqHMzn92uRLYuOmJSpKkB72Vsjv/2eVfmp6oJElKdgDupPzOfwWwHNiv0dlKkiRmgG9Tfse/6nIVsLDJSUuSNHZvp/wOf03Lp5qctCRJY7YjcBfld/Zr+yrggOamLknSOM0DzqD8jn7Sch3wyKZWgCRJY/QOyu/gp1mObWoFSJI0NrsB91J+5z7tcmgzq0GSpPGYB/yQ8jv1KssNwGZNrAxJksbi3ZTfoddZ/r2JlSFJ0hg8DriP8jvzustL8q8SSZKGbT5wLrEd8PuAj9d87YnAm4DfBf7/G4Etcq8YSZKG7L3Edv4nrXyfHWq+/uCVr39/cBz/kW2NSJI0cE8GHqD+TvdmYMuV77Wo5nsctPL1OY5EvDzXipEkaajmA+cR2+G+dJX3iwYAwB7EzkW4GdgqumIkSRqyDxHb+X/hYe+XIwAA3hMc19fqrxJJkoZtT2In3a3p+vtcATAf+HFgbCuAV9ddMZIkDdV6wIXEdrCHreF9cwUAwO7E7kh4G7Bd1RUjSdKQ/T2xnf/n1vK+OQMA4J3BcX5j+lUiSdKwPQNYSv2d6vWs/Sl8uQNgHnBmYKwrgCOmXC+SJA3WOsQO/S8HDpjw/rkDAGBX4J7AmBfjswIkSSP3CmJ/TX92jvdvIgAAjgqO+wNzvL8kSYN2PPV3olcDm8zx/k0FwDzg9MDYfzrH+0uSFDKv9ADmsHPN160g3av/zoxjqWI58Ebg7pqv3ynjWCRJWk3XA2BZzdd9EvhezoHUcCXwrpqvrTtvSZKm0vUA+EWN11wJvDv3QGr6FPVC5LLcA5EkaVVdD4D/rPjvo4fec6v7VcSXGxiLJEm9MQOcw/Qnz/1Txfdv6iTAh3tThfe+HlhY8f0lSRqc7YFrmXvH+W1gQcX3bisAAI6Z4n3vBP6wxntLkjRI2wDfYs07zQeATwDr1njfNgNgBvhL4I61vOe5wJNqvK8kSZXNlB5ARU8BDiRdJncfcCnwVeC6mu+3iHS/gKoOBr5Z8/98JHAIaS6bkA75nwacQQoBSZLUsDaPAEiS1BldvwpAkiQ1wACQJGmEDABJkkbIAJAkaYTmlx6A5rQxcCRwGPBY6l3uOK2bgB8A/xu4pIH3fxbwFuCZpKshmnI/8HPgBOA44HeZ338hD34mO9L8Z/J90mdyaQPv/xzgT0ifyaYNvP+s+0nj/w/g34Almd9/E+DPgENJn0nVe4JUcSPpMzmGercrn8tzSZ/JPjT7mcxeSTX7mSxt8P+SOqfrVwE8E7ih5hgjy1Lgg+S7THQ94NgC81hB2sDtlmkeAM8m7QBKfCbvI+9n8rkC81gBXAzskmkekHaYNxWYxxLgr8n3mawP/HuBeawALsSnkGpkFlHvl6WNANiT9EyDEhuD2eUjGeYxAxxfeB43Ao/JMJenAPcUnsuHMsxjhvRXX8l5/AbYLsNcnkr5z+T9GeYxQzpiVXIeNwDbZpiL1AuLqPeL0nQArEP6K6nkxmAF6eFKewfn8qoOzGMF8PXgPNYhfS1Seh7LSTu9iNd2YB4rgK8E5zGfdISn9DyWkeIw4g0dmMcK4KTgPKTeWES9X5KmA+CgmuNqYjkhOJfzOjCH2WX3wDwO6cD4Z5cvBuYB8NMOzGF22Tkwjz/uwPhnl38LzAPgog7MYQUpMHcMzkU94VUA3bRf6QGs4kWB125B/C+jnCJzGcpnsiXwB7kGkoGfSXrWyRNyDSRohm6tVzXIAOimHN+N5rIp6UqEOrahW8+biHy/2aXPZAtgg5qv7dp3vJH12qXPZCvqXw0ypM9EPWIAdNPdpQewimWky4Xq6NI8IDaeLs1lCekpmHV0aR4AdwVe26W5PED9Sxu7NA+IfSbqEQOgmy4oPYBVXESKgDquAW7LOJaonwVe26XP5Gek72rruJr0SOquGMpncgHpO/Q6rqRbO93IZ6IeMQC66WTq/4WXW+SEs6XETyLM5SbSY5frOon8NxSqK/KZLAFOzDWQoN8A3wu8/kTy31Corshn8gDpd74LrgNOLz0IqQ2LqHembBv3Afi7mmPLuVxG/e+aZ20D3NKBuRwRnAfAP3RgHpeSbuITsS1wawfm8prgPAA+3oF5XEz8bpDbA4s7MJfDg/OQemMR9X5J2giAdSh7Y5BryXcHvWcDtxecy0czzWM+6S+1UvP4NfnuoPdc0lcBpeby4UzzmE+6n0CpeVxFvjvo7QvcWXAuH8w0D6kXFlHvF6WtWwHPAG8HfltznHWWpaRrmrfKPJddgW+Svrtuay5XAi/PPI95wFHAzS3OYynptr1bZp7L7sC3WpzHCuAK4CWZ5zEP+EvaPdK0hHR760dlnsvjgFNbnMcK4Jek51poZLp0iVYJi0gnRVV1MGln1pYFpOcC7AJs1tD/cT/p+78zSBvSpjyGNJetae4hOjeRHgZ0LvVPlpvLAtLDjXahuQcb3U86EnMG6ZB9U7YnfSaPptnP5FLSZ7Kiof9jXdJnsjPNfSb38eBnsrih/wPStmkf0u9JUw82uol0d8vZm3VJo7KIesXc1hEASZIa4VUAkiSNkAEgSdIIGQCSJI2QASBJ0ggZAJIkjZABIEnSCBkAkqS6NgXeBZxJuo/IFcDXgdeS7mYqdZb3AZCkev6IyXdfvAB4bLHRSXMwACSpuv1It0Oea1t5HemBYOogvwKQJFWxEfB50oOY5rIt8Mlmh6O6DABJUhWvJT03YlqHkO/JosrIAJAkVbF/S69RwwwASVIV27f0GjXMAJAkVbFejdesn30UCjMAJEkaIQNAkqQRMgAkSRohA0CSpBEyACRJGiEDQJKkETIAJEkaIQNAkqQRMgAkSRohA0CSpBEyACRJGiEDQJKkETIAJEkaIQNAkqQRMgAkSRohA0CSpBEyACRJGiEDQJKkETIAJEkaIQNAkqQRMgAkSRohA0CSVMV9Lb1GDTMAJElVXF3jNVflHoTiDABJUhXfqvjvlwOnNDEQxRgAkqQqjqfaUYAv4REAddAiYEWN5aASg5Wkjtib9L3+XNvKXwKbFRqj5uARAElSVecA+wLXTPg3pwPPBha3MSBVN7/0ACRJvXQOsBvwGtJR0Z2A+4FLgROpfq6A1Cq/ApAkjZJHAMZtJ+AJwPqkk3rOA5aVHFAP7QHsCqwLXAFcQDrrWdOZAZ4M7Exab78ELio6IkmjMNYjAPsC57L6vH4LvBPDcBqHApew+jq8FngracemyV5POjt8TSeOHV5wXJJGYIwBcBTpr/xJ8zsNWFhqgD3wd8z9M3IisF6pAXbcDPCvzL0OP4knKktqyNgC4MWkw6zTzPFsjIA1eTPT/5x8AyNgTf6G6dfhcRgBkhowpgCYT/qOuso8jYCHWgjcTLV1aAQ81DbAvVRbh8dhBEjKbEwB8HzqzfVHwCYFxttFr6TeOjyFdKKl4B3UW4dfAtYpMF5psKzq8XhKzdftTdqBeSQAnlrzdQcAJ+ORAKj/c3g4cCxus6Rs/GUaj8hf8fsAp2IERNbhQcCXMQIi6/D1wP/B7ZaUhb9I43FD8PVGQHwdGgHxdWgESMpiTOcA7EK9uXpi4IOeTZ51OOYTA19OnnV4HEaApIAxBQDA18mz8R3ziYE/Js86HOuJgQuAX5FnHXpioKTaxhYA2wM3YQREPA64AyMg4pnAAxgBkgoaWwAA7AXcRp6N71i/DtiP6teyr20Z69cBhwNLybMOj8OvAyRVNMYAACMgByMgzggYhvWBFwFvAl4HPB2fhaEeGGsAgBGQgxEQZwT017rA+1nzV2K/Ip3wKXXWmAMAjIAcjIA4I6B/NgJOZ+7P46OFxifNaewBAEZADkZAnBHQL19g+s/jjYXGKE1kACRGQJwREGcE9MPTmf6poitIVx5tUGSk0gQGwIOMgDgjIM4I6L5/pvpncUiRkUoTGAAPtSdwK3k2vmO9T8BzgLvJsw7Hep+AlwFLyLMOvU9AfmdS/XP4QImBSpMYAKvzSECcRwLiPBLQXRdR/TM4ushIpQkMgDXzSECcRwLiPBLQTRdTff0fU2Sk0gQGwNoZAXFGQJwR0D0GgAbBAJjMCIgzAuKMgG4xADQIBsDcjIA4IyDOCOgOA0CDYABMxwiIMwLijIBuMAA0CAbA9IyAOCMgzggozwDQIBgA1RgBcUZAnBFQlgGgQTAAqjMC4oyAOCOgHANAg2AA1GMExBkBcUZAGQaABsEAqM8IiDMC4oyA9hkAGgQDIMYIiDMC4oyAdhkAGgQDIM4IiDMC4oyA9hgAGgQDIA8jIM4IiDMC2mEAaBAMgHyMgDgjIM4IaJ4BoEEwAPIyAuKMgDgjoFkGgAbBAMjPCIgzAuKMgOYYABoEA6AZRkCcERBnBDTDANAgGADNMQLijIA4IyA/A0CDYAA0ywiIMwLijIC8DAANggHQPCMgzgiIMwLyMQA0CAZAO4yAOCMgzgjIwwDQIBgA7dkLuI08G9+zgYXtDr8T9gPuJc86/AawXrvD74TDgaXkWYfHAfNaHX03XET1dXV0kZFKExgA7fJIQJxHAuI8EhDzA6qvp78pMlJpAgOgfUZAnBEQZwTU9zGqr6P9i4xUmsAAKMOvA+L8OiDOrwPqeQKwjOnXza+BdYuMVJrAACjHCIgzAuKMgHqOZrp1shw4rNAYpYkMgLKMgDgjIM4IqG4B8GUmr4tlwDtKDVCaiwFQnhEQZwTEGQHVzQBvJR3if/g6OAd4XrGRSVMwALrBCIgzAuKMgHpmgCcBhwAHAtuXHY40HQOgO7w6IM6rA+K8OkAaCQOgW4yAOCMgzgiQRsAA6B4jIM4IiDMCpIEzALrJCIgzAuKMAGnADIDuMgLijIA4I0AaKAOg24yAOCMgzgiQBsgA6L7clwiOMQK8RDDOSwSlgTEA+sEIiDMC4nJGwIdbHrukhzEA+sOvA+L8OiAu19cBy0k/05IKMQD6xSMBcR4JiMt1JODYtgcu6UEGQP8YAXFGQFyOCLiy9VFL+j0DoJ+MgDgjIC4aAfe2P2RJswyA/jIC4oyAuEgE/KbAeCWtZAD0mycGxnliYFzdEwO/WmKwkhIDoP88EhDnkYC4OkcCDi0y0rw2A95D+t25Abga+CZwBDC/2KikKRgAw2AExBkBcVUi4FRgpswwszkIWMza53ghsHOx0UlzMACGwwiIMwLiXgLcw+R1cw7pL+c+25/pYucGYNtCY5QmMgCGxQiIMwLiHk+a+8N3kDcDf03/18nGwI1M/3PwtTLDlCYzAIbHCIgzAvLYAngB6bv+vRjOQ4D+jOo/B7sXGak0gQEwTEZAnBGgtfkq1X8GjioyUmkCA2C4jIA4I0Brcj7VP/9PFBmpJvKRlBqq84B9SWcpR+1DOmt7bBFwGnAA6aS2qINIfzmO8T4BQ1Mn5Iy/DjIANGQ/BV5IngjYm3FGwJnAgeSJgAOAr2AESJ1gAGjojIA4I0AaIANAY2AExBkB0sAYABoLIyDOCJAGxADQmBgBcUaANBAGgMbGCIgzAqQBMAA0RkZAnBEg9ZwBoLEyAuKMAKnHDACNmREQZwRIPWUAjNc6wDOBI4G/AA4DHlF0RGX8lPRo09szvNfewCmMMwIOA+7L8F4HACfjneMkNWyszwI4HLia1ed1H+me3RsWG1k5PjsgzmcHjMPFVP88jykyUmmCMQbAh5l7fucDW5UaYEFGQJwRMHwGgAZhbAHwWqaf4yUYAUZAPUbAsBkAGoQxBcB6wPVUm6cRYATUZQQMlwGgQRhTAOxPvbkaAUZAXUbAMBkAA+FVAOPxBzVftwdwBrB1xrH0wXnAvuS5RHAfxnmJ4Gmks/pzXCJ4EPBVvERQysYAGI8NAq/dDfgu4zsS4CWCcV4iKHWUATAe1wZfvwfwfcYXAeeRDmXniIB9GGcEnAYcQp4IOAj4MkaApKAxnQOwPbCM+HexnhPgOQF1eU7AMHgOgAZhTAEA8EXybHyNACOgLiOg/wwADcLYAmBz4ArybHx/wfhODATYE7iVPOvwR4wzAp4D3E2edXgKnhjYNgNAgzC2AADYher3A1jb4pGA+OKRgPjikYB2nUv1z+hjRUYqTTDGAAAjIAcjIM4I6KeTqP75HFlkpNIEYw0AMAJyMALijID+OYJqn8syYIcC45QmGnMAgBGQgxEQZwT0y3rAlUz/mXy+zDClycYeAGAE5GAExBkB/fJ0pvu8LgMeWWiM0kQGQLIrRkCUERBnBPTLM5h8JOC7wJbFRifNwQB4kBEQZwTEGQH9sh7wBtItms8n/dweC7yo5KCkaRgAD7ULcB15Nr7eJyC+eJ+A+OJ9AiStkQGwOiMgzgiIMwIkNcoAWDMjIM4IiDMCJDXGAFg7IyDOCIgzAiQ1wgCYzAiIMwLijABJ2RkAczMC4oyAOCNAUlYGwHSMgDgjIM4IkJSNATA9IyDOCIgzAiRlYQBUYwTEGQFxRoCkMAOgOiMgzgiIMwIkhRgA9RgBcUZAnBEgqTYDoD4jIM4IiDMCJNViAMQYAXFGQJwRIKkyAyDOCIgzAuKMAEmVGAB5+CjhOB8lHOejhMvYANgfOBI4AtgbmFdyQNI0DIB8jIA4IyDOCGjPesCHgLtYfd1dDbyy2MikKRgAeRkBcUZAnBHQvI2AHzL3+vvHUgOU5mIA5GcExBkBcUZAs45n+vX35kJjlCYyAJphBMQZAXFGQDOeQbV191tgwyIjlSYwAJpjBMQZAXFGQH7/QvV1d2iRkUoTGADN8hLBOC8RjPMSwbzOpPp6+0CJgUqTGADN80hAnEcC4jwSkM9FVF9nRxcZqTSBAdAOjwTEeSQgziMBeVxM9fV1TJGRShMYAO0xAuKMgDgjIM4A0CAYAO0yAuKMgDgjIMYA0CAYAO0zAuKMgDgjoD4DQINgAJRhBMQZAXFGQD0GgAbBACjHCIgzAuKMgOoMAA2CAVCWERBnBMQZAdUYABoEA6A8IyDOCIgzAqZnAGgQDIBuMALijIA4I2A6BoAGwQDoDiMgzgiIMwLmZgBoEAyAbjEC4oyAOCNgMgNAg2AAdI8REGcExBkBa2cAaBAMgG4yAuKMgDgjYM0MAA2CAdBdRkCcERBnBKzOANAgGADdZgTEGQFxRsBDGQAaBAOg+3YFrifPxvcSYKt2h98JewG3kWcdns04I2A/4F7yrMNvAOu2O/ysDAANggHQD0ZAnBEQlzMCPt3y2HMyADQIBkB/+HVAnF8HxOX8OuC5LY89FwNAg2AA9IsREGcExOWKgC+0PfBMDAANggHQP34dEOfXAXE5vg74deujzsMA0CAYAP1kBMQZAXHRCLiv/SFnYQBoEAyA/jIC4oyAuEgEXFdgvDlcSPW5Hl1kpJpoXukBSDVdDjyPFAFRewBnML5zAs4D9gUWZ3ivfYBTGV8EnAYcANxT47VnZR5LW26p8Zqbso9CCvIIQP95JCDOIwFxdY4EvLDISOM+SvWfi/2LjFSawAAYBiMgzgiIqxIBXyo0xhweDyxl+p+Hq+n3jY80UAbAcBgBcUZA3PNIh8gnrZuvAxsWGl8u/8x0PwfLgUMKjVGayAAYFiMgzgiI2w74LHAHq/9MvZFhnHu1ADiJyZ//MuAvSg1QmosBMDxGQJwRkMe6pBNMnw5sU3gsTZgB3gxcxep/9Z9FumGS1FkGwDAZAXFGgKp4PHAw8CJg28JjkaZiAAyXtw2O87bBkgbLABg2IyDOCJA0SAbA8BkBcUaApMExAMbBCIgzAiQNigEwHkZAnBEgaTAMgHExAuKMAEmDYACMjxEQZwRI6j0DYJyMgDgjQFKvGQDjZQTEGQGSessAGDcjIM4IkNRLBoCMgDgjQFLvjDkAFgIvBT4AfAT4U2DHkgMqyGcHxPnsAEm9MsYAmCE9onMxq89rGXA8sHmx0ZVjBMQZAZJ6Y2wBMAMcy9zz+xXw2EJjLMkIiDMCJPXC2ALg7Uw/x2swAoyAeoyA8dgCeD/wE+BG0vk03wbeDCwoOC5pTmMKgA2BW6g2TyPACKjLCBi+Q4Dbmfyzv2ux0UlzGFMAvJh6czUCjIC6jIDhOhBYytyf22+AxxQaozTRmALgPdTf+F4D7NT+kIvzEsE4LxEcno1Jh/un/dy+XmaY0mRjCoD3Edv4eiQgvngkIL54JKC8t1H9c3tckZFKE4wpAF5HfONrBBgBdRkBw/E1qn9mRxUZqTTBmALg0cASjIC6jIA4I2AYzqf65/WJIiOVJhhTAAB8mjwbXyPACKjLCOi/i6n+WR1TZKTSBGMLgIXARRgBEUZAnBHQbwaABmFsAQBph3MJ+SLAqwNii1cHxBevDmiXAaBBGGMAgBGQgxEQZwT0kwGgQRhrAIARkIMREGcE9I8BoEEYcwCAEZCDERBnBPSLAaBBGHsAgBGQgxEQZwT0hwGgQTAAEiMgzgiIMwL6wQDQIBgADzIC4oyAOCOg+wwADYIB8FBGQJwREGcEdJsBoEEwAFZnBMQZAXFGQHcZABoEA2DNjIA4IyDOCOgmA0CDYACsnREQZwTEGQHdYwBoEAyAyYyAOCMgzgjoFgNAg2AAzM0IiDMC4oyA7jAANAgGwHSMgDgjIM4I6AYDQINgAEzPCIgzAuKMgPIMAA2CAVCNERBnBMQZAWUZABoEA6A6IyDOCIgzAsoxADQIBkA9RkCcERBnBJRhAGgQDID6jIA4IyDOCGifAaBBMABijIA4IyDOCGiXAaBBMADitiHteHJFwGPbHX4n7ApcT551eAkpzMZmL+A28qzDszECJvkJ1dfpx4qMVJrAAMjDCIgzAuKMgHacSPX1+adFRipNYADkYwTEGQFxRkDzXke19biMtK2VOsUAyMsIiDMC4oyAZq0LXMH06/BzZYYpTWYA5GcExBkBcUZAs/YC7mHudfdzYNNCY5QmMgCaYQTEGQFxRkCz9mLykYBvA48qNjppDgZAc4yAOCMgzgho1rqkcwJOAM4Bfgh8BnhByUFJ0zAAmuV9AuK8T0Cc9wmQtBoDoHlGQJwREGcESHoIA6AdRkCcERBnBEj6PQOgPUZAnBEQZwRIAgyAthkBcUZAnBEgyQAowAiIMwLijABp5AyAMoyAOCMgzgiQRswAKMcIiDMC4owAaaQMgLKMgDgjIM4IkEbIACjPCIgzAuKMAGlkDIBuMALijIA4I0AaEQOgO4yAOCMgzgiQRsIA6BYjIM4IiDMCpBEwALrHCIgzAuKMAGngDIBu8lHCcT5KOC7no4SHHAEbAQcDbwfeAjwLWKfoiKQpGADdZQTEGQFxRsDarQ98BLiH1ed6LfDackOT5mYAdJsREGcExBkBq1tImstc8/1fpQYozcUA6L7cEbBDq6PvhtwR8Kh2h98JuSNg43aHn90JTD/ftxYaozSRAdAPOSPgQmDDdoffCTkj4HTG+R1vzgg4qeWx57Q31eZ6M+k8AalTDID+yBkB72557F2RMwJe3/LYuyJnBOzf8thzOZrqcz2syEilCQyAfsl1ieCVbQ+8Q3JdInhW2wPvkFyXCJ7c9sAz+SHV5/qBEgOVJjEA+ifXkYAxnsw2K8eRgCXAvLYH3iE5jgRc3/qo87iI6nM9pshINdGYf4HVTzcA+wKXBd9nswxj6avLgeeT1mVd8xnG2ex1nQfsB9weeI++/gzOlB6A8jAA1Ec5IuC3mcbSV9EIuB+4I99weikaATdlHItUmQGgvopEwMWk73DHLhIBs98Dj10kAs7MPBapEgNAfXYD8Fzg0oqv8/vIB10OPI/q30e7Dh90HilGF1d83acaGIukKXkS4DBUOTHwDNL313qoKicG9vXs9aZVOTGwzwF1MZ4EqAEwAIbj0cA5TP7cTgc2LzS+PtiJuS+z/Are1GWSJwNXM3kdHgssKDS+HAwADYIBMCzrAm8DLuDBz2o5cD7wZvzLfxobAu8inVsxuw6XAmcDr8AzwKfxCOBvgat4cB3+DvgecGDBceViAGgQDIDh2pj08B//Wq1vU9KzEzYoPI4+2xzYnvTkvKEwAAbCv4g0VHevXFTf7cSuc1e62sQrTtRJXgUgSdIIGQCSJI2QASBJ0ggZAJIkjZABIEnSCBkAkiSNkAEgSdIIGQCSJI2QASBJ0giN/U6At5Ee4fkI4EbgOuAu4H7gPtK95Tci3Qp1O2Br0r3QrykxWEmSchl7ANwJbAssAZZN+ZqNgHsaG5EkSS0YewBA+mu/Cnf+kqTe8xwASVIVy1t6jRpmAEiSqrilxmtuzj4p2x4DAAAH3klEQVQKhRkAkqQqflLjNT/OPgpJktSqPYClwIoplyuBBUVGKkmSsvonptv5LwdeXGiMkiQps/nAl5i8818K/PdSA5QkSc2YAY4Afsnqf/WfAeyT8f9asPL9XgUcAuyQ8b0lSVJNuwJ/BDyfdMfUXNYF3ku6Y+vDjzCcBTw74/8lSZI6YCHwQ+Y+x+CTK/+tJEkagJOZ/kqDq4AXlhmmJEnK5flMv/Nf9WjAZ4BNCoy3l2ZKD6CwdYCnAn8I7LZy2Zz0A/QI4A7Svf9vAy5fuZxLuqlF1WcISJKmcxzw+pqvvQZ4C/DtbKPRYKwH/DHwn6QdfNXKXAHcC3wHeAN+9yRJuV1CvW3zqkcD/pX0h5zEo4APA7cS+8F6+HIP8Gngse1NRZIG7RrybJ+vBQ5seezqkI2AfyDtqHPu+B++LAGOBbZsZ1qSNFg/Iu/2+TjgkW1OQOW9mHwlOe2yGHgrnl8hSXX9Lfm3zdfjbYlHYQHpr/7ltLvzX3X5GrBZ0xOVpAHamuaO2p4IbNHeVNSmLYBzKLfjX3X5FekOWZKkav6E5rbNvwEObW8qasP2wM8pv+Nfdfkt8LQmJy1JA3Uk8Dua2z4fj0cDBmFL4DLK7/DXtNwB7Nnc1CVpsJ5Iuv9KU9vnm4CXtTYbZfcI4ALK7+gnLTcAOza1AiRpwBYA7wMeoLlt9Il4FVfvzJBu6lN6Bz/NciGwQTOrQZIG7wnAT2huG72YdBdB9cSfU37HXmX5ZDOrQZJGYT7wHtLt2JvaTn8Z2KqtCamenYD7KL9Tr7q8oImVIUkjsgfwXzS3nb4NjwZ02jcovzOvs1xOeiaBJKm+eaSddJN3ev0msF1bE9J09qf8jjyy/Hn+VSJJo7Q7+W8fvOqyGHhda7PRnM6k/E48slyLRwEkKZfZowF309x2+xTgMW1NSGu2N+V34DmWN+VeMZI0crsCZ9Hcdvs20qPgVchnKb/zzrGclXvFSJKYIR0NuIvmtt+nku4+qxZtANxO+Z13jmU5sHPe1SNJWmlnmr1vwO2kZxb49NeWHEj5HXfO5X/kXT2SpFUcTPPb8e8Ai9qaUC7zSw+ghueXHkBm+wKfqPG6XYAPkG6RKUlas2e18H/sB1wE/BXwGVIUdF4fD1ucC+xVehAZ3QVsSvo6oIq3AcfkH44kKeBU4NWkSwc7bV7pAVQ0Q7r705AspN6hoxtzD0SSFHYA6byDzt9KuG8B8Bhgw9KDaMBuNV5zffZRSJJy2An4Ah0/yt63ANih9AAaskON19ycexCSpGxeCDyv9CAm6VsALCw9gIZsUuM192UfhSQpp1eVHsAkBkA31JmXASBJ3bZr6QFM0rcA6PT3KQF15tWLy0wkacQ6vY/t9ODW4K7SA2hInXltkH0UkqScLi89gEkMgG64s8Zrhng1hCQNyQmlBzBJ3wLg16UH0JA689o8+ygkSbmcBXy39CAm6VsAXMMwT367rMZrts0+CklSDtcDr6T6HV5b1bcAWA78ovQgMrsHuLrG67bOPA5JUtyPgKcB15UeyFz6+DCgM4A9Sw8io7OAZTVedyZwCj4MSJImeQqwWQv/zwPAB4GPA0tb+P9G6cWUf4RvzuWv8q4eSdIqDqH57fiPGd5zajppI9LVAKV33LmW3fOuHknSSlsDP6C57fd9wDuBddqakOA4yu+4cyz/lXm9SJKSlwG30Nz2+xzgca3NRr/3XMrvvHMsR+ZeMZI0ctsC36S57fa9wDvwr/6izqb8Djyy3Ih385OknF4G3Epz2+2zqff4dmXW95MB/2f+VSJJo7Q9cCrNba/vAY6if5fOD9r3KL8jr7NcAazfwPqQpDGZAV4HLKa57fVZdPypfmO1K3A/5XfoVZeDm1gZkjQii4DTaG47fQ/wLvyrv9PeTfkdepXluEbWgiSNwwzpBOo7aW47/T1gx7YmpPpmgP9L+R37NMtlwMJmVoMkDd4OpAfs+Fe/fm8L0jMCSu/gJy234E1/JKmOecDbgbtpbhv9HdLXCuqh7UiP1S29o1/Tci+wT3NTl6TB2hH4Ps1tn+8A3kI6mqwe2430ZL3SO/xVl9tJNy6SJFXzKtJh+aa2z6cAj2ltNmrcNsDPKL/jX0F6JvSTmp2uJA3Sq2lu23wb8Ib2pqI2bQR8jrI7/+8AWzU9UUkaoC1p7qFv3yDdLlgD9yrgJtrd8d9NusufZ5FKUj3vI/+2eTHppkEakUcCxwAP0OyOfzlwIn6fJElRZ5F3+/w10qOBNVLbA0eT/4SSJcCXgCe2NxVJGrRcV3TdQjqXQALSjXjeQLqZRN3bCC8Ffkx6OITf80tSXpcS3/l/GbfPE439uscNgWcCzwAeR3q2wBbAI4BNSLeavJv03dHlK5dzgTNIl/dJkvL7AvX/cr+ZdNOgE/INR5IkteEA6v3VfyLpCgJJktRTpzD9jv8m4KVlhilJknLaDDifuXf+x5O+upUkSQOxIfAx1nz11kXAweWG1n9jPwlQktR9GwHPIT307QHgAuDCoiOSJEmSJEmSJEmSJEmSJEmSJEmSJEmSJEmSJEmSJEmSJEmSJEmSJEmSJEmSJEmSJEmSJEmSJEmSJEmSJEmSJEmSJEmSJEmSJEmSJEmSJEmSJEmSJEmSJEmSJEmSJEmSJEmSJEmSJEmSJEmSJEmSJEmSJEmSJEmSJEmSJEmSJCm7/w/6g692ywTyrQAAAABJRU5ErkJggg==;" parent="1" vertex="1">
          <mxGeometry x="462.5" y="108.93" width="30" height="30" as="geometry" />
        </mxCell>
        <mxCell id="t303TAb1Uz-uj7NbguCg-32" value="&lt;div style=&quot;line-height: 100%;&quot;&gt;% (Median, IQR)&lt;/div&gt;" style="text;align=center;verticalAlign=middle;rounded=0;fontFamily=Merriweather;spacing=0;horizontal=1;whiteSpace=wrap;html=1;imageHeight=24;imageWidth=24;strokeOpacity=100;arcSize=12;" parent="1" vertex="1">
          <mxGeometry x="431.59" y="166" width="91.81" height="14" as="geometry" />
        </mxCell>
        <mxCell id="t303TAb1Uz-uj7NbguCg-33" value="" style="endArrow=classic;html=1;rounded=0;strokeWidth=2;endSize=2;startSize=2;" parent="1" edge="1">
          <mxGeometry width="50" height="50" relative="1" as="geometry">
            <mxPoint x="499.75" y="136.29000000000002" as="sourcePoint" />
            <mxPoint x="539.75" y="136.2" as="targetPoint" />
          </mxGeometry>
        </mxCell>
        <mxCell id="t303TAb1Uz-uj7NbguCg-34" value="&lt;font style=&quot;font-size: 12px;&quot; face=&quot;Merriweather&quot;&gt;Variables&lt;/font&gt;" style="edgeLabel;html=1;align=center;verticalAlign=middle;resizable=0;points=[];rotation=-90;" parent="t303TAb1Uz-uj7NbguCg-33" vertex="1" connectable="0">
          <mxGeometry x="-0.2039" y="-1" relative="1" as="geometry">
            <mxPoint x="1" y="-1" as="offset" />
          </mxGeometry>
        </mxCell>
        <mxCell id="t303TAb1Uz-uj7NbguCg-48" value="&lt;div style=&quot;line-height: 90%;&quot;&gt;Area&lt;/div&gt;" style="text;html=1;align=center;verticalAlign=middle;whiteSpace=wrap;rounded=0;fontFamily=Merriweather;spacing=0;" parent="1" vertex="1">
          <mxGeometry x="558.3199999999999" y="129.62" width="29.86" height="10.18" as="geometry" />
        </mxCell>
        <mxCell id="t303TAb1Uz-uj7NbguCg-50" value="" style="endArrow=none;html=1;rounded=0;" parent="1" edge="1">
          <mxGeometry width="50" height="50" relative="1" as="geometry">
            <mxPoint x="550.04" y="128.82" as="sourcePoint" />
            <mxPoint x="600.04" y="128.82" as="targetPoint" />
          </mxGeometry>
        </mxCell>
        <mxCell id="t303TAb1Uz-uj7NbguCg-51" value="" style="rounded=0;whiteSpace=wrap;html=1;spacing=2;fillColor=#A76119;strokeColor=none;rotation=90;" parent="1" vertex="1">
          <mxGeometry x="581.09" y="96.88000000000001" width="9" height="25.8" as="geometry" />
        </mxCell>
        <mxCell id="t303TAb1Uz-uj7NbguCg-52" value="" style="rounded=0;whiteSpace=wrap;html=1;spacing=2;fillColor=#A76119;strokeColor=none;rotation=90;" parent="1" vertex="1">
          <mxGeometry x="580.1800000000001" y="110.84999999999998" width="9" height="23.78" as="geometry" />
        </mxCell>
        <mxCell id="t303TAb1Uz-uj7NbguCg-61" value="" style="group" parent="1" vertex="1" connectable="0">
          <mxGeometry x="462.5" y="139.8" width="30" height="30" as="geometry" />
        </mxCell>
        <mxCell id="t303TAb1Uz-uj7NbguCg-62" value="" style="shape=image;verticalLabelPosition=bottom;labelBackgroundColor=default;verticalAlign=top;aspect=fixed;imageAspect=0;image=data:image/png,iVBORw0KGgoAAAANSUhEUgAAAgAAAAIACAYAAAD0eNT6AAAACXBIWXMAAA8eAAAPHgH67H1EAAAAGXRFWHRTb2Z0d2FyZQB3d3cuaW5rc2NhcGUub3Jnm+48GgAAIABJREFUeJzt3Xm0JVV96PHvbbqZGxEQZJAGGcUpKGrAGUUI4APihDMO0RCfIfE9o8sYp0QTNWa9BJ7DMjyJUQyDUZ8DKA6AIEbgiUwKIiCTINDMkz29P3Zfaejuc0/Vb1ftGr6fteq/Pqf3rnNv1ffWqQEkSZIkSZIkSZIkSZIkSZIkSZIkSZIkSZIkSZIkSZIkSZIkSZIkSZIkSZIkSZIkSZIkSZIkSZIkSZIkSZIkSZIkSZIkSZIkSZIkSZIkSZIkSZIkSZIkSZIkSZIkSZIkSZIkSZIkSZIkSZIkSZIkSZIkSZIkSZIkSZIkSZIkSd0yU3oAHfQoYG9gG+AW4Dzg6pIDkiRJzdkc+DzwALBilWUZcAqwU7mhSZKkJuwCXMdDd/wPX+4E9i01QEmSlNcmwM+ZvPOfXW4Fdi4zTEmSlNPnmG7nP7ucA6xTZKSSJCmLg6m2859d3lVisJIkKW5T4FrqBcD9wBPbH7IkSYr6IvV2/rPL/wMWtD5qSZJU238jtvOfXd7b9sAlSVI9WwA3kicAlgBPbXf4kiSpjhPJs/OfXS4A1m11BpIkqZJXkHfnP7t8sM1JSJKk6T0KuIlmAmAJ8LT2piJJkqZ1Ms3s/GeXS4H1W5uNJEma02toduc/u/x9WxOSJEmTbU26h38bAbAMeFY705IkSZN8hXZ2/rPLL4ANWpmZJElaozfS7s5/dvnHNiYnSZJWty2wmDIBsAx4TvNTlCRJq5oBTqHMzn92uRLYuOmJSpKkB72Vsjv/2eVfmp6oJElKdgDupPzOfwWwHNiv0dlKkiRmgG9Tfse/6nIVsLDJSUuSNHZvp/wOf03Lp5qctCRJY7YjcBfld/Zr+yrggOamLknSOM0DzqD8jn7Sch3wyKZWgCRJY/QOyu/gp1mObWoFSJI0NrsB91J+5z7tcmgzq0GSpPGYB/yQ8jv1KssNwGZNrAxJksbi3ZTfoddZ/r2JlSFJ0hg8DriP8jvzustL8q8SSZKGbT5wLrEd8PuAj9d87YnAm4DfBf7/G4Etcq8YSZKG7L3Edv4nrXyfHWq+/uCVr39/cBz/kW2NSJI0cE8GHqD+TvdmYMuV77Wo5nsctPL1OY5EvDzXipEkaajmA+cR2+G+dJX3iwYAwB7EzkW4GdgqumIkSRqyDxHb+X/hYe+XIwAA3hMc19fqrxJJkoZtT2In3a3p+vtcATAf+HFgbCuAV9ddMZIkDdV6wIXEdrCHreF9cwUAwO7E7kh4G7Bd1RUjSdKQ/T2xnf/n1vK+OQMA4J3BcX5j+lUiSdKwPQNYSv2d6vWs/Sl8uQNgHnBmYKwrgCOmXC+SJA3WOsQO/S8HDpjw/rkDAGBX4J7AmBfjswIkSSP3CmJ/TX92jvdvIgAAjgqO+wNzvL8kSYN2PPV3olcDm8zx/k0FwDzg9MDYfzrH+0uSFDKv9ADmsHPN160g3av/zoxjqWI58Ebg7pqv3ynjWCRJWk3XA2BZzdd9EvhezoHUcCXwrpqvrTtvSZKm0vUA+EWN11wJvDv3QGr6FPVC5LLcA5EkaVVdD4D/rPjvo4fec6v7VcSXGxiLJEm9MQOcw/Qnz/1Txfdv6iTAh3tThfe+HlhY8f0lSRqc7YFrmXvH+W1gQcX3bisAAI6Z4n3vBP6wxntLkjRI2wDfYs07zQeATwDr1njfNgNgBvhL4I61vOe5wJNqvK8kSZXNlB5ARU8BDiRdJncfcCnwVeC6mu+3iHS/gKoOBr5Z8/98JHAIaS6bkA75nwacQQoBSZLUsDaPAEiS1BldvwpAkiQ1wACQJGmEDABJkkbIAJAkaYTmlx6A5rQxcCRwGPBY6l3uOK2bgB8A/xu4pIH3fxbwFuCZpKshmnI/8HPgBOA44HeZ338hD34mO9L8Z/J90mdyaQPv/xzgT0ifyaYNvP+s+0nj/w/g34Almd9/E+DPgENJn0nVe4JUcSPpMzmGercrn8tzSZ/JPjT7mcxeSTX7mSxt8P+SOqfrVwE8E7ih5hgjy1Lgg+S7THQ94NgC81hB2sDtlmkeAM8m7QBKfCbvI+9n8rkC81gBXAzskmkekHaYNxWYxxLgr8n3mawP/HuBeawALsSnkGpkFlHvl6WNANiT9EyDEhuD2eUjGeYxAxxfeB43Ao/JMJenAPcUnsuHMsxjhvRXX8l5/AbYLsNcnkr5z+T9GeYxQzpiVXIeNwDbZpiL1AuLqPeL0nQArEP6K6nkxmAF6eFKewfn8qoOzGMF8PXgPNYhfS1Seh7LSTu9iNd2YB4rgK8E5zGfdISn9DyWkeIw4g0dmMcK4KTgPKTeWES9X5KmA+CgmuNqYjkhOJfzOjCH2WX3wDwO6cD4Z5cvBuYB8NMOzGF22Tkwjz/uwPhnl38LzAPgog7MYQUpMHcMzkU94VUA3bRf6QGs4kWB125B/C+jnCJzGcpnsiXwB7kGkoGfSXrWyRNyDSRohm6tVzXIAOimHN+N5rIp6UqEOrahW8+biHy/2aXPZAtgg5qv7dp3vJH12qXPZCvqXw0ypM9EPWIAdNPdpQewimWky4Xq6NI8IDaeLs1lCekpmHV0aR4AdwVe26W5PED9Sxu7NA+IfSbqEQOgmy4oPYBVXESKgDquAW7LOJaonwVe26XP5Gek72rruJr0SOquGMpncgHpO/Q6rqRbO93IZ6IeMQC66WTq/4WXW+SEs6XETyLM5SbSY5frOon8NxSqK/KZLAFOzDWQoN8A3wu8/kTy31Corshn8gDpd74LrgNOLz0IqQ2LqHembBv3Afi7mmPLuVxG/e+aZ20D3NKBuRwRnAfAP3RgHpeSbuITsS1wawfm8prgPAA+3oF5XEz8bpDbA4s7MJfDg/OQemMR9X5J2giAdSh7Y5BryXcHvWcDtxecy0czzWM+6S+1UvP4NfnuoPdc0lcBpeby4UzzmE+6n0CpeVxFvjvo7QvcWXAuH8w0D6kXFlHvF6WtWwHPAG8HfltznHWWpaRrmrfKPJddgW+Svrtuay5XAi/PPI95wFHAzS3OYynptr1bZp7L7sC3WpzHCuAK4CWZ5zEP+EvaPdK0hHR760dlnsvjgFNbnMcK4Jek51poZLp0iVYJi0gnRVV1MGln1pYFpOcC7AJs1tD/cT/p+78zSBvSpjyGNJetae4hOjeRHgZ0LvVPlpvLAtLDjXahuQcb3U86EnMG6ZB9U7YnfSaPptnP5FLSZ7Kiof9jXdJnsjPNfSb38eBnsrih/wPStmkf0u9JUw82uol0d8vZm3VJo7KIesXc1hEASZIa4VUAkiSNkAEgSdIIGQCSJI2QASBJ0ggZAJIkjZABIEnSCBkAkqS6NgXeBZxJuo/IFcDXgdeS7mYqdZb3AZCkev6IyXdfvAB4bLHRSXMwACSpuv1It0Oea1t5HemBYOogvwKQJFWxEfB50oOY5rIt8Mlmh6O6DABJUhWvJT03YlqHkO/JosrIAJAkVbF/S69RwwwASVIV27f0GjXMAJAkVbFejdesn30UCjMAJEkaIQNAkqQRMgAkSRohA0CSpBEyACRJGiEDQJKkETIAJEkaIQNAkqQRMgAkSRohA0CSpBEyACRJGiEDQJKkETIAJEkaIQNAkqQRMgAkSRohA0CSpBEyACRJGiEDQJKkETIAJEkaIQNAkqQRMgAkSRohA0CSVMV9Lb1GDTMAJElVXF3jNVflHoTiDABJUhXfqvjvlwOnNDEQxRgAkqQqjqfaUYAv4REAddAiYEWN5aASg5Wkjtib9L3+XNvKXwKbFRqj5uARAElSVecA+wLXTPg3pwPPBha3MSBVN7/0ACRJvXQOsBvwGtJR0Z2A+4FLgROpfq6A1Cq/ApAkjZJHAMZtJ+AJwPqkk3rOA5aVHFAP7QHsCqwLXAFcQDrrWdOZAZ4M7Exab78ELio6IkmjMNYjAPsC57L6vH4LvBPDcBqHApew+jq8FngracemyV5POjt8TSeOHV5wXJJGYIwBcBTpr/xJ8zsNWFhqgD3wd8z9M3IisF6pAXbcDPCvzL0OP4knKktqyNgC4MWkw6zTzPFsjIA1eTPT/5x8AyNgTf6G6dfhcRgBkhowpgCYT/qOuso8jYCHWgjcTLV1aAQ81DbAvVRbh8dhBEjKbEwB8HzqzfVHwCYFxttFr6TeOjyFdKKl4B3UW4dfAtYpMF5psKzq8XhKzdftTdqBeSQAnlrzdQcAJ+ORAKj/c3g4cCxus6Rs/GUaj8hf8fsAp2IERNbhQcCXMQIi6/D1wP/B7ZaUhb9I43FD8PVGQHwdGgHxdWgESMpiTOcA7EK9uXpi4IOeTZ51OOYTA19OnnV4HEaApIAxBQDA18mz8R3ziYE/Js86HOuJgQuAX5FnHXpioKTaxhYA2wM3YQREPA64AyMg4pnAAxgBkgoaWwAA7AXcRp6N71i/DtiP6teyr20Z69cBhwNLybMOj8OvAyRVNMYAACMgByMgzggYhvWBFwFvAl4HPB2fhaEeGGsAgBGQgxEQZwT017rA+1nzV2K/Ip3wKXXWmAMAjIAcjIA4I6B/NgJOZ+7P46OFxifNaewBAEZADkZAnBHQL19g+s/jjYXGKE1kACRGQJwREGcE9MPTmf6poitIVx5tUGSk0gQGwIOMgDgjIM4I6L5/pvpncUiRkUoTGAAPtSdwK3k2vmO9T8BzgLvJsw7Hep+AlwFLyLMOvU9AfmdS/XP4QImBSpMYAKvzSECcRwLiPBLQXRdR/TM4ushIpQkMgDXzSECcRwLiPBLQTRdTff0fU2Sk0gQGwNoZAXFGQJwR0D0GgAbBAJjMCIgzAuKMgG4xADQIBsDcjIA4IyDOCOgOA0CDYABMxwiIMwLijIBuMAA0CAbA9IyAOCMgzggozwDQIBgA1RgBcUZAnBFQlgGgQTAAqjMC4oyAOCOgHANAg2AA1GMExBkBcUZAGQaABsEAqM8IiDMC4oyA9hkAGgQDIMYIiDMC4oyAdhkAGgQDIM4IiDMC4oyA9hgAGgQDIA8jIM4IiDMC2mEAaBAMgHyMgDgjIM4IaJ4BoEEwAPIyAuKMgDgjoFkGgAbBAMjPCIgzAuKMgOYYABoEA6AZRkCcERBnBDTDANAgGADNMQLijIA4IyA/A0CDYAA0ywiIMwLijIC8DAANggHQPCMgzgiIMwLyMQA0CAZAO4yAOCMgzgjIwwDQIBgA7dkLuI08G9+zgYXtDr8T9gPuJc86/AawXrvD74TDgaXkWYfHAfNaHX03XET1dXV0kZFKExgA7fJIQJxHAuI8EhDzA6qvp78pMlJpAgOgfUZAnBEQZwTU9zGqr6P9i4xUmsAAKMOvA+L8OiDOrwPqeQKwjOnXza+BdYuMVJrAACjHCIgzAuKMgHqOZrp1shw4rNAYpYkMgLKMgDgjIM4IqG4B8GUmr4tlwDtKDVCaiwFQnhEQZwTEGQHVzQBvJR3if/g6OAd4XrGRSVMwALrBCIgzAuKMgHpmgCcBhwAHAtuXHY40HQOgO7w6IM6rA+K8OkAaCQOgW4yAOCMgzgiQRsAA6B4jIM4IiDMCpIEzALrJCIgzAuKMAGnADIDuMgLijIA4I0AaKAOg24yAOCMgzgiQBsgA6L7clwiOMQK8RDDOSwSlgTEA+sEIiDMC4nJGwIdbHrukhzEA+sOvA+L8OiAu19cBy0k/05IKMQD6xSMBcR4JiMt1JODYtgcu6UEGQP8YAXFGQFyOCLiy9VFL+j0DoJ+MgDgjIC4aAfe2P2RJswyA/jIC4oyAuEgE/KbAeCWtZAD0mycGxnliYFzdEwO/WmKwkhIDoP88EhDnkYC4OkcCDi0y0rw2A95D+t25Abga+CZwBDC/2KikKRgAw2AExBkBcVUi4FRgpswwszkIWMza53ghsHOx0UlzMACGwwiIMwLiXgLcw+R1cw7pL+c+25/pYucGYNtCY5QmMgCGxQiIMwLiHk+a+8N3kDcDf03/18nGwI1M/3PwtTLDlCYzAIbHCIgzAvLYAngB6bv+vRjOQ4D+jOo/B7sXGak0gQEwTEZAnBGgtfkq1X8GjioyUmkCA2C4jIA4I0Brcj7VP/9PFBmpJvKRlBqq84B9SWcpR+1DOmt7bBFwGnAA6aS2qINIfzmO8T4BQ1Mn5Iy/DjIANGQ/BV5IngjYm3FGwJnAgeSJgAOAr2AESJ1gAGjojIA4I0AaIANAY2AExBkB0sAYABoLIyDOCJAGxADQmBgBcUaANBAGgMbGCIgzAqQBMAA0RkZAnBEg9ZwBoLEyAuKMAKnHDACNmREQZwRIPWUAjNc6wDOBI4G/AA4DHlF0RGX8lPRo09szvNfewCmMMwIOA+7L8F4HACfjneMkNWyszwI4HLia1ed1H+me3RsWG1k5PjsgzmcHjMPFVP88jykyUmmCMQbAh5l7fucDW5UaYEFGQJwRMHwGgAZhbAHwWqaf4yUYAUZAPUbAsBkAGoQxBcB6wPVUm6cRYATUZQQMlwGgQRhTAOxPvbkaAUZAXUbAMBkAA+FVAOPxBzVftwdwBrB1xrH0wXnAvuS5RHAfxnmJ4Gmks/pzXCJ4EPBVvERQysYAGI8NAq/dDfgu4zsS4CWCcV4iKHWUATAe1wZfvwfwfcYXAeeRDmXniIB9GGcEnAYcQp4IOAj4MkaApKAxnQOwPbCM+HexnhPgOQF1eU7AMHgOgAZhTAEA8EXybHyNACOgLiOg/wwADcLYAmBz4ArybHx/wfhODATYE7iVPOvwR4wzAp4D3E2edXgKnhjYNgNAgzC2AADYher3A1jb4pGA+OKRgPjikYB2nUv1z+hjRUYqTTDGAAAjIAcjIM4I6KeTqP75HFlkpNIEYw0AMAJyMALijID+OYJqn8syYIcC45QmGnMAgBGQgxEQZwT0y3rAlUz/mXy+zDClycYeAGAE5GAExBkB/fJ0pvu8LgMeWWiM0kQGQLIrRkCUERBnBPTLM5h8JOC7wJbFRifNwQB4kBEQZwTEGQH9sh7wBtItms8n/dweC7yo5KCkaRgAD7ULcB15Nr7eJyC+eJ+A+OJ9AiStkQGwOiMgzgiIMwIkNcoAWDMjIM4IiDMCJDXGAFg7IyDOCIgzAiQ1wgCYzAiIMwLijABJ2RkAczMC4oyAOCNAUlYGwHSMgDgjIM4IkJSNATA9IyDOCIgzAiRlYQBUYwTEGQFxRoCkMAOgOiMgzgiIMwIkhRgA9RgBcUZAnBEgqTYDoD4jIM4IiDMCJNViAMQYAXFGQJwRIKkyAyDOCIgzAuKMAEmVGAB5+CjhOB8lHOejhMvYANgfOBI4AtgbmFdyQNI0DIB8jIA4IyDOCGjPesCHgLtYfd1dDbyy2MikKRgAeRkBcUZAnBHQvI2AHzL3+vvHUgOU5mIA5GcExBkBcUZAs45n+vX35kJjlCYyAJphBMQZAXFGQDOeQbV191tgwyIjlSYwAJpjBMQZAXFGQH7/QvV1d2iRkUoTGADN8hLBOC8RjPMSwbzOpPp6+0CJgUqTGADN80hAnEcC4jwSkM9FVF9nRxcZqTSBAdAOjwTEeSQgziMBeVxM9fV1TJGRShMYAO0xAuKMgDgjIM4A0CAYAO0yAuKMgDgjIMYA0CAYAO0zAuKMgDgjoD4DQINgAJRhBMQZAXFGQD0GgAbBACjHCIgzAuKMgOoMAA2CAVCWERBnBMQZAdUYABoEA6A8IyDOCIgzAqZnAGgQDIBuMALijIA4I2A6BoAGwQDoDiMgzgiIMwLmZgBoEAyAbjEC4oyAOCNgMgNAg2AAdI8REGcExBkBa2cAaBAMgG4yAuKMgDgjYM0MAA2CAdBdRkCcERBnBKzOANAgGADdZgTEGQFxRsBDGQAaBAOg+3YFrifPxvcSYKt2h98JewG3kWcdns04I2A/4F7yrMNvAOu2O/ysDAANggHQD0ZAnBEQlzMCPt3y2HMyADQIBkB/+HVAnF8HxOX8OuC5LY89FwNAg2AA9IsREGcExOWKgC+0PfBMDAANggHQP34dEOfXAXE5vg74deujzsMA0CAYAP1kBMQZAXHRCLiv/SFnYQBoEAyA/jIC4oyAuEgEXFdgvDlcSPW5Hl1kpJpoXukBSDVdDjyPFAFRewBnML5zAs4D9gUWZ3ivfYBTGV8EnAYcANxT47VnZR5LW26p8Zqbso9CCvIIQP95JCDOIwFxdY4EvLDISOM+SvWfi/2LjFSawAAYBiMgzgiIqxIBXyo0xhweDyxl+p+Hq+n3jY80UAbAcBgBcUZA3PNIh8gnrZuvAxsWGl8u/8x0PwfLgUMKjVGayAAYFiMgzgiI2w74LHAHq/9MvZFhnHu1ADiJyZ//MuAvSg1QmosBMDxGQJwRkMe6pBNMnw5sU3gsTZgB3gxcxep/9Z9FumGS1FkGwDAZAXFGgKp4PHAw8CJg28JjkaZiAAyXtw2O87bBkgbLABg2IyDOCJA0SAbA8BkBcUaApMExAMbBCIgzAiQNigEwHkZAnBEgaTAMgHExAuKMAEmDYACMjxEQZwRI6j0DYJyMgDgjQFKvGQDjZQTEGQGSessAGDcjIM4IkNRLBoCMgDgjQFLvjDkAFgIvBT4AfAT4U2DHkgMqyGcHxPnsAEm9MsYAmCE9onMxq89rGXA8sHmx0ZVjBMQZAZJ6Y2wBMAMcy9zz+xXw2EJjLMkIiDMCJPXC2ALg7Uw/x2swAoyAeoyA8dgCeD/wE+BG0vk03wbeDCwoOC5pTmMKgA2BW6g2TyPACKjLCBi+Q4Dbmfyzv2ux0UlzGFMAvJh6czUCjIC6jIDhOhBYytyf22+AxxQaozTRmALgPdTf+F4D7NT+kIvzEsE4LxEcno1Jh/un/dy+XmaY0mRjCoD3Edv4eiQgvngkIL54JKC8t1H9c3tckZFKE4wpAF5HfONrBBgBdRkBw/E1qn9mRxUZqTTBmALg0cASjIC6jIA4I2AYzqf65/WJIiOVJhhTAAB8mjwbXyPACKjLCOi/i6n+WR1TZKTSBGMLgIXARRgBEUZAnBHQbwaABmFsAQBph3MJ+SLAqwNii1cHxBevDmiXAaBBGGMAgBGQgxEQZwT0kwGgQRhrAIARkIMREGcE9I8BoEEYcwCAEZCDERBnBPSLAaBBGHsAgBGQgxEQZwT0hwGgQTAAEiMgzgiIMwL6wQDQIBgADzIC4oyAOCOg+wwADYIB8FBGQJwREGcEdJsBoEEwAFZnBMQZAXFGQHcZABoEA2DNjIA4IyDOCOgmA0CDYACsnREQZwTEGQHdYwBoEAyAyYyAOCMgzgjoFgNAg2AAzM0IiDMC4oyA7jAANAgGwHSMgDgjIM4I6AYDQINgAEzPCIgzAuKMgPIMAA2CAVCNERBnBMQZAWUZABoEA6A6IyDOCIgzAsoxADQIBkA9RkCcERBnBJRhAGgQDID6jIA4IyDOCGifAaBBMABijIA4IyDOCGiXAaBBMADitiHteHJFwGPbHX4n7ApcT551eAkpzMZmL+A28qzDszECJvkJ1dfpx4qMVJrAAMjDCIgzAuKMgHacSPX1+adFRipNYADkYwTEGQFxRkDzXke19biMtK2VOsUAyMsIiDMC4oyAZq0LXMH06/BzZYYpTWYA5GcExBkBcUZAs/YC7mHudfdzYNNCY5QmMgCaYQTEGQFxRkCz9mLykYBvA48qNjppDgZAc4yAOCMgzgho1rqkcwJOAM4Bfgh8BnhByUFJ0zAAmuV9AuK8T0Cc9wmQtBoDoHlGQJwREGcESHoIA6AdRkCcERBnBEj6PQOgPUZAnBEQZwRIAgyAthkBcUZAnBEgyQAowAiIMwLijABp5AyAMoyAOCMgzgiQRswAKMcIiDMC4owAaaQMgLKMgDgjIM4IkEbIACjPCIgzAuKMAGlkDIBuMALijIA4I0AaEQOgO4yAOCMgzgiQRsIA6BYjIM4IiDMCpBEwALrHCIgzAuKMAGngDIBu8lHCcT5KOC7no4SHHAEbAQcDbwfeAjwLWKfoiKQpGADdZQTEGQFxRsDarQ98BLiH1ed6LfDackOT5mYAdJsREGcExBkBq1tImstc8/1fpQYozcUA6L7cEbBDq6PvhtwR8Kh2h98JuSNg43aHn90JTD/ftxYaozSRAdAPOSPgQmDDdoffCTkj4HTG+R1vzgg4qeWx57Q31eZ6M+k8AalTDID+yBkB72557F2RMwJe3/LYuyJnBOzf8thzOZrqcz2syEilCQyAfsl1ieCVbQ+8Q3JdInhW2wPvkFyXCJ7c9sAz+SHV5/qBEgOVJjEA+ifXkYAxnsw2K8eRgCXAvLYH3iE5jgRc3/qo87iI6nM9pshINdGYf4HVTzcA+wKXBd9nswxj6avLgeeT1mVd8xnG2ex1nQfsB9weeI++/gzOlB6A8jAA1Ec5IuC3mcbSV9EIuB+4I99weikaATdlHItUmQGgvopEwMWk73DHLhIBs98Dj10kAs7MPBapEgNAfXYD8Fzg0oqv8/vIB10OPI/q30e7Dh90HilGF1d83acaGIukKXkS4DBUOTHwDNL313qoKicG9vXs9aZVOTGwzwF1MZ4EqAEwAIbj0cA5TP7cTgc2LzS+PtiJuS+z/Are1GWSJwNXM3kdHgssKDS+HAwADYIBMCzrAm8DLuDBz2o5cD7wZvzLfxobAu8inVsxuw6XAmcDr8AzwKfxCOBvgat4cB3+DvgecGDBceViAGgQDIDh2pj08B//Wq1vU9KzEzYoPI4+2xzYnvTkvKEwAAbCv4g0VHevXFTf7cSuc1e62sQrTtRJXgUgSdIIGQCSJI2QASBJ0ggZAJIkjZABIEnSCBkAkiSNkAEgSdIIGQCSJI2QASBJ0giN/U6At5Ee4fkI4EbgOuAu4H7gPtK95Tci3Qp1O2Br0r3QrykxWEmSchl7ANwJbAssAZZN+ZqNgHsaG5EkSS0YewBA+mu/Cnf+kqTe8xwASVIVy1t6jRpmAEiSqrilxmtuzj4p2x4DAAAH3klEQVQKhRkAkqQqflLjNT/OPgpJktSqPYClwIoplyuBBUVGKkmSsvonptv5LwdeXGiMkiQps/nAl5i8818K/PdSA5QkSc2YAY4Afsnqf/WfAeyT8f9asPL9XgUcAuyQ8b0lSVJNuwJ/BDyfdMfUXNYF3ku6Y+vDjzCcBTw74/8lSZI6YCHwQ+Y+x+CTK/+tJEkagJOZ/kqDq4AXlhmmJEnK5flMv/Nf9WjAZ4BNCoy3l2ZKD6CwdYCnAn8I7LZy2Zz0A/QI4A7Svf9vAy5fuZxLuqlF1WcISJKmcxzw+pqvvQZ4C/DtbKPRYKwH/DHwn6QdfNXKXAHcC3wHeAN+9yRJuV1CvW3zqkcD/pX0h5zEo4APA7cS+8F6+HIP8Gngse1NRZIG7RrybJ+vBQ5seezqkI2AfyDtqHPu+B++LAGOBbZsZ1qSNFg/Iu/2+TjgkW1OQOW9mHwlOe2yGHgrnl8hSXX9Lfm3zdfjbYlHYQHpr/7ltLvzX3X5GrBZ0xOVpAHamuaO2p4IbNHeVNSmLYBzKLfjX3X5FekOWZKkav6E5rbNvwEObW8qasP2wM8pv+Nfdfkt8LQmJy1JA3Uk8Dua2z4fj0cDBmFL4DLK7/DXtNwB7Nnc1CVpsJ5Iuv9KU9vnm4CXtTYbZfcI4ALK7+gnLTcAOza1AiRpwBYA7wMeoLlt9Il4FVfvzJBu6lN6Bz/NciGwQTOrQZIG7wnAT2huG72YdBdB9cSfU37HXmX5ZDOrQZJGYT7wHtLt2JvaTn8Z2KqtCamenYD7KL9Tr7q8oImVIUkjsgfwXzS3nb4NjwZ02jcovzOvs1xOeiaBJKm+eaSddJN3ev0msF1bE9J09qf8jjyy/Hn+VSJJo7Q7+W8fvOqyGHhda7PRnM6k/E48slyLRwEkKZfZowF309x2+xTgMW1NSGu2N+V34DmWN+VeMZI0crsCZ9Hcdvs20qPgVchnKb/zzrGclXvFSJKYIR0NuIvmtt+nku4+qxZtANxO+Z13jmU5sHPe1SNJWmlnmr1vwO2kZxb49NeWHEj5HXfO5X/kXT2SpFUcTPPb8e8Ai9qaUC7zSw+ghueXHkBm+wKfqPG6XYAPkG6RKUlas2e18H/sB1wE/BXwGVIUdF4fD1ucC+xVehAZ3QVsSvo6oIq3AcfkH44kKeBU4NWkSwc7bV7pAVQ0Q7r705AspN6hoxtzD0SSFHYA6byDzt9KuG8B8Bhgw9KDaMBuNV5zffZRSJJy2An4Ah0/yt63ANih9AAaskON19ycexCSpGxeCDyv9CAm6VsALCw9gIZsUuM192UfhSQpp1eVHsAkBkA31JmXASBJ3bZr6QFM0rcA6PT3KQF15tWLy0wkacQ6vY/t9ODW4K7SA2hInXltkH0UkqScLi89gEkMgG64s8Zrhng1hCQNyQmlBzBJ3wLg16UH0JA689o8+ygkSbmcBXy39CAm6VsAXMMwT367rMZrts0+CklSDtcDr6T6HV5b1bcAWA78ovQgMrsHuLrG67bOPA5JUtyPgKcB15UeyFz6+DCgM4A9Sw8io7OAZTVedyZwCj4MSJImeQqwWQv/zwPAB4GPA0tb+P9G6cWUf4RvzuWv8q4eSdIqDqH57fiPGd5zajppI9LVAKV33LmW3fOuHknSSlsDP6C57fd9wDuBddqakOA4yu+4cyz/lXm9SJKSlwG30Nz2+xzgca3NRr/3XMrvvHMsR+ZeMZI0ctsC36S57fa9wDvwr/6izqb8Djyy3Ih385OknF4G3Epz2+2zqff4dmXW95MB/2f+VSJJo7Q9cCrNba/vAY6if5fOD9r3KL8jr7NcAazfwPqQpDGZAV4HLKa57fVZdPypfmO1K3A/5XfoVZeDm1gZkjQii4DTaG47fQ/wLvyrv9PeTfkdepXluEbWgiSNwwzpBOo7aW47/T1gx7YmpPpmgP9L+R37NMtlwMJmVoMkDd4OpAfs+Fe/fm8L0jMCSu/gJy234E1/JKmOecDbgbtpbhv9HdLXCuqh7UiP1S29o1/Tci+wT3NTl6TB2hH4Ps1tn+8A3kI6mqwe2430ZL3SO/xVl9tJNy6SJFXzKtJh+aa2z6cAj2ltNmrcNsDPKL/jX0F6JvSTmp2uJA3Sq2lu23wb8Ib2pqI2bQR8jrI7/+8AWzU9UUkaoC1p7qFv3yDdLlgD9yrgJtrd8d9NusufZ5FKUj3vI/+2eTHppkEakUcCxwAP0OyOfzlwIn6fJElRZ5F3+/w10qOBNVLbA0eT/4SSJcCXgCe2NxVJGrRcV3TdQjqXQALSjXjeQLqZRN3bCC8Ffkx6OITf80tSXpcS3/l/GbfPE439uscNgWcCzwAeR3q2wBbAI4BNSLeavJv03dHlK5dzgTNIl/dJkvL7AvX/cr+ZdNOgE/INR5IkteEA6v3VfyLpCgJJktRTpzD9jv8m4KVlhilJknLaDDifuXf+x5O+upUkSQOxIfAx1nz11kXAweWG1n9jPwlQktR9GwHPIT307QHgAuDCoiOSJEmSJEmSJEmSJEmSJEmSJEmSJEmSJEmSJEmSJEmSJEmSJEmSJEmSJEmSJEmSJEmSJEmSJEmSJEmSJEmSJEmSJEmSJEmSJEmSJEmSJEmSJEmSJEmSJEmSJEmSJEmSJEmSJEmSJEmSJEmSJEmSJEmSJEmSJEmSJEmSJEmSJCm7/w/6g692ywTyrQAAAABJRU5ErkJggg==;" parent="t303TAb1Uz-uj7NbguCg-61" vertex="1">
          <mxGeometry width="30" height="30" as="geometry" />
        </mxCell>
        <mxCell id="5hGx_t09uoVu_bXs3V6K-93" value="" style="group" parent="t303TAb1Uz-uj7NbguCg-61" vertex="1" connectable="0">
          <mxGeometry x="5" y="4" width="24.14" height="20" as="geometry" />
        </mxCell>
        <mxCell id="5hGx_t09uoVu_bXs3V6K-92" value="" style="whiteSpace=wrap;html=1;aspect=fixed;strokeColor=none;" parent="5hGx_t09uoVu_bXs3V6K-93" vertex="1">
          <mxGeometry x="1" width="20" height="20" as="geometry" />
        </mxCell>
        <mxCell id="5hGx_t09uoVu_bXs3V6K-91" value="" style="shape=image;verticalLabelPosition=bottom;labelBackgroundColor=default;verticalAlign=top;aspect=fixed;imageAspect=0;image=data:image/png,iVBORw0KGgoAAAANSUhEUgAAAgAAAAIACAYAAAD0eNT6AAAACXBIWXMAATr1AAE69QGXCHZXAAAAGXRFWHRTb2Z0d2FyZQB3d3cuaW5rc2NhcGUub3Jnm+48GgAAG2BJREFUeJzt3XvwbWdd3/H3SU7IhQO5GMnFUhAJBOsFASvUS8cJVKnQlpkGqNIWb8woY6fe/aMzTh2n7QyKHcdpLbY41WoLWCsYQERBY6i0RmyQBEkASzAXIQm5EkJyzukf66QScnJyzu+31l57/dbrNbPGMwjP77v2Ws/zfPaz16UAAAAAAAAAAAAAAAAAAAAAAAAAAAAAAAAAAAAAAAAAAAAAAAAAAAAAAAAAAAAAAAAAAAAAAAAAAAAAAAAAAAAAAAAAAAAAAAAAAAAAAAAAAAAAAAAAAAAAAAAAAAAAAAAAAAAAAAAAAAAAAAAAAAAAAAAAAAAAAAAAAAAAAAAAAAAAAAAAAAAAAAAAAAAAAAAAAAAAAAAAAAAAAAAAAAAAAAAAAAAAAACAh9g3dwFwxP7qcUf5zx9TPfYY/7tTqzOO8f8/rTp9F3WN4XEN+7fNDlR3z13EiA5Wd85dxC4crN5b3Tt3IexdAgBTekJ1SfX86isaJuMHJ+uzj/zfMxomceChPlX9cvW66uqZa2EPEgAY2znVP63+cfXMnGMwhvc0BIE3VPfNXAt7hMGZsTyn+r7qpQ3f9IHx3VD9VPUL1T0z1wKs3FMavpUcqg7bbLaNbDdVLw92wQoAO3Wg+onq1Q0X6gGb97bqe6rr5y6E5REA2IlnV79aPW3uQoBurV5R/dbchbAsJ89dAIuyr/rBhsn/CTPXAgzOqL61oX9ePnMtLIgVAI7XyQ1XIX/H3IUAj+i/NPTR++cuhO0nAHA8Tq3+a/WSuQsBHtVlDXfjeIgQxyQA8GgOVG+vvm7uQoDj9vbq72clgGNwDQDHclLDLX5/Z+5CgBNyUfXU6n803DYIDyMAcCw/Xb1y7iKAHfnyhvdovHPuQthOAgCP5LuqfzV3EcCu/K3qmiMbPIRrADiaL67e3/D7P7Bsd1d/s/rg3IWwXU6auwC2zr7q9Zn8Ya84UP1SVnz5PE4IPt+rq++duwhgVBdWn6z+99yFsD38BMDnOrP68+rsuQsBRndndXHDi4TATwA8xPdl8oe96vENj/KGygoAf+VAw7f/c+cuBJjMPdWTq1tmroMtYAWAB31PJn/Y6x5bfefcRbAdBAAe9Iq5CwA24mVzF8B28BMANTw29NoN/J03V79Y3d5wb/KxfLZhufJY7qs+/Sj/nc/kpSh7xckNv2PvZec0vMzn4on/zkXVhyf+G8AC/FjD88Kn2m6onr+xvYFlu6DhoT1T9skf2djeAFvtrU030HygOn9zuwJ7wtQh4M2b2xVgm93YNIPMB6vzNrgfsJdMGQKu3+B+AFvqjKYZYD7c8PQxYOfOq65u/P55qDptg/sBbKFnNP7gcnP1pE3uBOxhFzRcRzN2P33aJneC7eM2QKa49//a6mMTtAtrdFP1kQnaPWeCNlkQAYC9flsVcHRnzl0A8xIAMAjAOgn/KycAYBCAdRL+V04AQACAddL3V04AwCAA66Tvr5wAwIG5CwBm8bi5C2BeAgCnzl0AMIvHzF0A8xIAOGXuAoBZCAArJwBgEIB10vdXTgDAIADrpO+vnACAQQDWyfU/KycAIADAOun7KycAYBCAddL3V04AwCAA66Tvr9z+uQsYybnVpdWzqr9RPVDdU72vurx6Z3Votuq2m0EA1sk1AI9sf/Ut1ddXX9nwwLS7q49WV1SXVZ+arTqqekL1i9VnqsPH2D5UvbLaN0uV2+3Kjv3Z7WS7fKN7AHvf5Y3fT6/c6B4sw8nV91c3dOzP7s7qp6pz5imTv1t9ohM74X+r+oI5it1iVyUAwLabIgBctdE92H5fVL2nE/sMb6pePEexa/bi6r52dtJ/oDpv8yVvrWsSAGDbTREArtnoHmy3CxpWinfyOR6sXrX5ktfp6dW97e7E/51cAPmg6xIAYNtNEQCu2+gebK+Tqj9sd5/loep5my58t5Y2Ce6rXledtst2Lqlesfty9gTvAoB10vcHr66eu8s29lWvGaEWjuFZWf4a26Nd7GIFAOY3xQrADRvdg+10cuOOgU/abPm7s7QVgK8bsa1nVF82YntL5VsArJO+X99QXThie88fsa3JLS0AXDRye5eM3N4SGQRgnfT9+pqR21vUdQBLCwB/feT2njlye0tkEIB10veHh/yMaew5alJLCwDnjtze2CsKS+RJgLBOAsD4E7YAMKGxn7rkeQB753HQwIkRAIb7/8f0xJHbm9TSAsDYKwBrfyrg/jweGdZqX74AnDVye2e0oFXVJQWAk6qzR25z7S/D8A0A1m3tAWC3z5Q5msdO0OYklhQAzmq4Z3NMAgCwZov5tjqRKfb/wARtTmJJAeDMCdocO1Aszdo7P6zd2seAKeYAAWACp89dwB5kBQDWzRgwPj8BTOCMuQvYg3R+WLe1XwMwhcV8pksKAFYAxicAwLoZA8a3mHl1MYUmAExB54d1MwaMbzHz6mIKTQCYgs4P62YMGN9i5tXF/FbRNPdrVr1xonaXYOyHYADL8trq9rmL2GMEgAlMdRHgpRO1C7DtXjB3AXvQYgLAYgrN/aoAbL/FzKuLKTQP7QFg+y1mXl1MoS2rVgDWaTFz1WIKzQoAANtvMfPqYgptWbUCsE6LmasWU2hWAADYfouZVxdTaMuqFYB1WsxctZhCswIAwPZbzLy6mEJbVq0ArNNi5qrFFAoAjGdJAeDQ3AUAwKNYzFy1pABwcO4CAOBRCAATWMyHCsBqLWauWlIAsAIAwLYTACawmA8VgNVazFy1pABgBQCAbScATGAxHyoAq7WYuWpJAcAKAADbTgCYwGfnLgAAHsViAsD+uQs4AZ+eqN03TdTuEpxVvWDuIoDZvLO6fe4iZnTpBG0KABP4zETtvnSidpfgy6v3z10EMJsfqD4wdxEzOjxBm4sJAEv6CeDeuQvYg+6fuwBgVsaA8QkAExAAxqfzw7oZA8YnAExAABifzg/rZgwYnwAwgakuAlwznR/W7YG5C9iDFvOZLikAWAEYnwAA62YMGN89cxdwvJYUAO6YoM21P1zIsxVg3dY+BkyxXH/3BG1OYkkB4PbGn7DvG7m9pZH+Yd3WHgCmGAMFgAkcqm4buU0BAFizxfxePZEp5gA/AUzk1i1vb2keaJoHYQDb73ACwNgPmLunBa2qrD0A3DRye0u09gEA1soK4PhzwPUjtzeptQeAj4zc3hItJq0CoxIA6uMjt/cXI7c3qaUFgLHT1f8Zub0lMgjAOun79acjt/exkdub1NICwLUjt/e7I7e3RAYBWCd9v35n5Pb+cOT2JrW0APCeEdu6pnW/BetBBgFYJ32/Lq8+OmJ7YweKSS0tAPxJwwEbw78eqZ2lMwjAOun7w0XQPzlSW1e0sIsAl+hpDe8FOLyL7bdbXviZynXt7rM82jZWSAMGlzd+P71uo3uwvfZV72h3n+Wh6rmbLny3ljgJXltd2s6vXv/T6tta0BubJuZbAKyTvj84XL2ynV9jdqh6VfXesQri0b2w+stOLKW9rTpnjmK32FVZAYBtN8UKwFUb3YPtd351ZSf2Gd5YvWiOYqkvrF7f8KbAYx2kDzUkvH2zVLndTvSEFwBg86YIAFdudA+WYX/1ww3vnjnWZ3d39doW/oVy/9wF7NInq+9oOGCXVs+qvrQhENxf/XFDx/ndLPk/Eg8CgnVa+7tQjuaB6jXVz1UvqS6pnl6d2fCY3w9X767e0jD/wKL9XlYAYNtNsQLwro3uAVtniRcBMi4rALBO+v7KCQAYBGCd9P2VEwAwCMA66fsrJwDgQiBYJ31/5QQAfAuAddL3V04AwCAA66Tvr5wAgEEA1knfXzkBAIMArJO+v3ICAHfPXQAwi7vmLoB5CQDcOXcBwCz0/ZUTADAIwDrp+ysnAHDH3AUAs9D3V04AwLcAWCd9f+UEAHwLgHXS91dOAODWCdr8kuqCCdqFNbqgoU+N7bYJ2gQW5PTqUOO/a/xD1YUb3A/Yi86rrm78/nmoOm2D+wFsqRsbf4A5XH0wKwGwUxc09KEp+ub1G9wPYItd1jSDjBAAOzPl5H+4evPmdoVt5RoAqv5gwrYvrt6VEADH64KGPnPxhH/jignbZiH2zV0AW+Gp1XUT/40/q16UC4/gWM5pWJGbcvKvoc9/ZOK/wZYTAHjQn1TPnLsIYHLvq549dxHMz08APOgNcxcAbMQb5y6A7WAFgAedU32sOjB3IcBk7qmeXN0ycx1sASsAPOi26hfmLgKY1M9n8ucIKwB8rgsbbj16/NyFAKO7o+HiwpvnLoTtcPLcBbBV7qo+Xb1w7kKA0f1Q9e65i2B7WAHg851cvbd6ztyFAKP5o+p51cG5C2F7CAAczUXVlfkpAPaCu6uvbngWB/x/LgLkaK6rvnvuIoBdO1x9eyZ/jsI1ADySqxtWAJ43dyHAjr2m+tm5i2A7CQAcyzurJ+UJgbBEv1q9umEVAB7GNQA8mlOqt1TfPHchwHF7W/UPqvvnLoTt5RoAHs39DQPJf5+7EOC4/Gb1DzP58yj8BMDxONgQAL6oetbMtQCP7Jerb60+O3chbD8BgON1uOGbxeHqG/LzEWyTg9WPVz9QHZq5FhbCIM5OfGP136onzF0I0K3Vt1XvmLsQlsU1AOzEuxueFPjWuQuBlbus+qpM/uyAAMBOfbx6UfXyvFwENu2m6qXVixv6IsAsTq1e1TAQHbbZbJNtN1c/Wp0R7JJrABjTqdXLGsLA185cC+wl76leV72hum/mWtgjBACm8vSGZ5B/Z3XuzLXAEt3RMOH/u+qqmWthDxIAmNrp1XNzyymciIMNr+W+d+5CAAAAAAAAAAAAAAAAAAAAAAAAAAAAAAAAAAAAAAAAAAAAAAAAAAAAAAAAAAAAAAAAAAAAAAAAAAAAAAAAAAAAAAAAAAAAAAAAAAAAAAAAAAAAAACATdk3dwGwUmd/3v/9/H+f1fH1zzOrk0aoZ3/1wHH+dw9Wdx7Hf+9QdceRf3+2uufIvz9d3Xfk33ceaQ/YMAEApvOE6pLq+dVXNUzwZx3ZeKhD1a1HtluqG6prqvdX7+r4AgcAzOac6vur9zVMaodtu94+W729eln1mOM/FAAwvedU/7m6t/knzL28XV/9s+qM4zssADCNp1RvyLf9TW83NqwIAMBGHahe23Ax29yT4Zq3t1V//VGOFQCM4tnVh5p/8rMN263VC495xABgF/ZVP5hv/du4Hax+Inc2ATCyk6v/1PwTne3Y269UpzzCMQSAE3Jq9evNP7nZjm+7LHcJALBLB6o/aP5JzXZi2zvyzAAAduik6jeafzKz7Wz79YafboCj0Dngkf109cq5i2DHnlE9vmE1AACOy3c1/zdY2zjbywMexi0z8HBf3PASmgNzF8Io7q6+puHlQsARY7xGFPaSfdXrM/nvJQeqX8pPnvAQOgQ81Kur7527CEZ3YcMTA//X3IXAtvATAPyVM6s/r86euxAmcWd1cXXT3IXANvATAPyV78vkv5c9vvqhuYuAbWEFAAYHGr79nzt3IUzqnurJ1S0z1wGzswIAg+/J5L8Gj224xRNWTwCAwSvmLoCNeencBcA28BMA1EXVtRv4O29uuMXwhs/5z+6qHjjy789U9x7598GGi9a23WnV6SO2d1bDy3y+dMQ2j+ai6sMT/w0AttyPNe2T6G6onr+xvVm+8xoe2jPlMfmRje0NAFvrrU030XygOn9zu7JnnF99sOmOy5s3tysAbKsbm2aS+WDDt1l25oKmCwHXb3A/ANhCZzTNBPPhhqfPsTvnVVc3/vE51HD9AgAr9YzGn1xurp60yZ3Y4y5ouI5i7OP0tE3uBGwbtwGydlPc+39t9bEJ2l2rm6qPTNDuORO0CYshALB2j5+7AGZz5twFwJwEANbOJLBewh+rJgCwdiaB9RL+WDUBgLUTANbLsWfVBADWziSwXo49qyYAsHYH5i6A2Txu7gJgTgIAa3fq3AUwm8fMXQDMSQBg7U6ZuwBmIwCwagIAa2cSWC/HnlUTAFg7k8B6OfasmgDA2pkE1sv1H6yaAMDaCQDr5dizagIAa2cSWC/HnlUTAFg7k8B6Ofas2v65C9hip1cvqS5peGf8WdU91XXV71W/UX1iruIYjUlgvVwD8MgeV/296vkN49+51d3V/63eU73pyL9hTzml+tHqjurwMbZ7qp+pzp6nTEZyZcc+zjvZLt/oHqzD5Y1/nK7c6B4swynVj1W3dezP7mD1q9UXzVMmjO/86n2d2CDy8err5yiWUVyVALAEUwSAqza6B9vvwuqPOrHP8FPVN89RLIzpwuradjaQ3Fu9cPMlM4JrEgCWYIoAcM1G92C7nVd9pJ19jvdX37L5kmEc+6rfbneDye3Vl2y6cHbtugSAJZgiAFy30T3YXidVv9/uPsu7qqdsunB2x10Ag++sXrDLNs5suCaAZfEugPVy7AevrL5hl20cqP797kuBzTq54Xf8Mb5RHKq+bLPls0s3ZAVgCaZYAbhho3uwnfa386X/o23P22z57IYVgOGE/WsjtbWvunSkttgM3wLXy7Gvv924S/fGvwURAOo5I7d3ycjtMS2TwHo59uOPV2OPp0xIAKinjtzeV+RzXRKTwHo59sN4Naaxx1MmZKKqC0Zu73ENt9SwDJ4EuF4CQD1x5Pae0HBdFQsgANQ5E7R5/gRtMg2Pw14vAWD8serkhsemswACQJ02QZtfMEGbjG9/w4WbrNO+BMApxr8p2mQCAsA0J6tl5WXwDZC1B4ApXojkJUsLIQBMM1lLwMsgALD2sD5FHzD+LYQAMM3J6iKYZVj74I8QOMUcoF8thABguWrN1j744xyYgjF1IQQAJ+uaGfxxDozPTwALIQAIAGtm8Mdy9fiMqQshAPi9fs0EANZ+F8AUjKkLIQC4D3zNBACcA+Mzpi6E9DuN789bsZbAE8t4bXX73EXsMQLAQggA06yCeCc2LMML5i4A5uInAGkVYEzG1IUQAJysAGMypi6EAADAmASAhRAAnKwAYzKmLoQA4GQFGJMxdSEEACcrwJiMqQshADhZAcZkTF0IAcDJCjAmY+pCCAAAjEkAWAgBAABWSAAAYEyH5y6A4yMAOFkBxmRMXQgBwMkKMCZj6kIIAE5WgDEZUxdCAHCyAozJmLoQAoCTFWBMxtSFEAAAGJMAsBACgJMVYEzG1IUQAJysAGMypi7E/rkL2AKHJmjzD6u/mKBdxnVW9YK5i2BW76xun7uIGV06dwHMRwCYxs9Ub5q7CB7Vl1fvn7sIZvUD1QfmLmJGU3xbtwKwEH4CcLKu2f1zF8DsnAPjM6YuhABQB+cugNkY/Hlg7gL2IGPqQggAdd/cBTAbAYDPzl3AHvSZuQvg+AgAAsCaCQA4B8ZnTF0IAcDJumYGf5wD4zOmLoQAMM1yld/AlsHyL2sPAFPcBq1fLYQAMM3J6jewZVj74I/Jaoo+YPxbCAFgmpN17YPKUggArP0ugCmW6/0EsBACwDQB4JYJ2mR8D+Se5TU7nAAwxfhnBWAhBIBpJuubJ2iTaax9AlgzK0B108jtPVB9auQ2mYgAUH85cnt3VZ8YuU2m4+ea9RIA6uMjt/fJprmwkAkIAHXdyO1dlQ6wJCaB9XLs609Hbu/DI7fHhASA+uOR2/vdkdtjWiaB9XLs63dGbu/KkdtjQgJA/c/Ge3Xv4erXRmqLzTAJrJdjX5dXHx2xvTeO2BYTEwCG5fp/OVJbv9m6Xy26RCaB9XLsh4v2fnKktt5RvXektmBj9jWcvId3sX2qesqmC2fXrmt3x/1o2+Ub3YN1uLzxj9PY1/8s1b7qt9rdZ3lb9cRNF87uWAEYHK5eWV27w//9vdXLG3cpjc3wLXC9HPvB4eoftfPVy89UL2n8Owpgo85vuIjlRJLv9dXXzlEso7gqKwBLMMUKwFUb3YPt9wXV73din+Enqq+bo1iYwv7qh6vbO/aJf3f12ursecpkJCca+ASAeUwRAFyx/nAnV/+8YWI/1md3f/X66gvnKZMx7J+7gC30QPWa6ucalrUuqZ5enVnd03Cf67urtzQ89IJl8yCg9fLM+oc7WP3b6nXVi6tvqr60OrfhS89HqyuqN2XJH1i438sKwBJMsQLwro3uAWwZFwGydlYA1suxZ9UEANbOJLBejj2rJgCwdiaB9XLsWTUBgLVzIdh6OfasmgDA2vkWuF6OPasmALB2JoH1cuxZNQGAtTMJrJdjz6oJAKydSWC9HHtWTQBg7e6euwBmc9fcBcCcBADW7s65C2A2jj2rJgCwdiaB9XLsWTUBgLW7Y+4CmI1jz6oJAKydb4Hr5dizagIAa+db4Ho59qyaAMDa3TpBm19SXTBBu2t1QcNnOrbbJmgTgIU4vTrU+O+a/1B14Qb3Y686r7q68Y/Poeq0De4HAFvoxsafYA5XH8xKwG5c0PAZTnFsrt/gfgCwpS5rmklGCNi5KSf/w9WbN7crsJ1cAwD1BxO2fXH1roSAE3FBw2d28YR/44oJ24ZF2Dd3AbAFnlpdN/Hf+LPqRbnw7NGc07AiM+XkX8Mx/8jEfwO2mgAAgz+pnjl3EWzE+6pnz10EzM1PADB4w9wFsDFvnLsA2AZWAGBwTvWx6sDchTCpe6onV7fMXAfMzgoADG6rfmHuIpjcz2fyh8oKAHyuCxtuPXv83IUwiTsaLi68ee5CYBucPHcBsEXuqj5dvXDuQpjED1XvnrsI2BZWAOChTq7eWz1n7kIY1R9Vz6sOzl0IbAsBAB7uourK/BSwV9xdfXXDsxiAI1wECA93XfXdcxfBKA5X357JHx7GNQBwdFc3rAA8b+5C2JXXVD87dxEALMu+6heb7oU0tmm3X8kqJwA7dEr19uafzGwntr31yLEDgB07tfq15p/UbMe3vaU6/ahHEgBO0MnVf2z+yc127O2Xqv2PcAwBYEf2VT/ecC/53BOd7aHbA9W/yK3NAEzoG6u/bP5JzzZst1TfdMwjBgAjeWJ1WfNPfmvffvPIsQCAjXpZdVPzT4Rr226sLj2O4wMAkzm1elX18eafGPf6dnP1o9UZx3VkAGADTq3+SXVF80+Ue2274shne+pxHw0AmMHTq39TfbL5J8+lbrdX/6H6yhP87IHj4JYZmNbp1XPz3o0TdbDhtcz3zl0IAAAAAAAAAAAAAAAAAAAAAAAAAAAAAAAAAAAAAAAAAAAAAAAAAAAAAAAAAAAAAAAAAAAAAAAAAAAAAAAAAAAAAAAAAAAAAAAAAAAAAAAAAAAAAAAAAAAAAAAAAAAAAAAAAAAAAAAAAAAAAAAAAAAAAAAAAAAAAAAAAAAAAAAAAAAAAAAAAAAAAAAAAAAAAAAAAAAAAAAAAAAAAAAAAAAAAAAAAAAAAAAAACvx/wBp8WPZlsGVyQAAAABJRU5ErkJggg==;clipPath=inset(12.33% 4.67% 50.67% 6%);" parent="5hGx_t09uoVu_bXs3V6K-93" vertex="1">
          <mxGeometry y="6" width="24.14" height="10" as="geometry" />
        </mxCell>
        <mxCell id="t303TAb1Uz-uj7NbguCg-64" value="" style="endArrow=classic;html=1;rounded=0;strokeWidth=2;endSize=2;startSize=2;" parent="1" edge="1">
          <mxGeometry width="50" height="50" relative="1" as="geometry">
            <mxPoint x="419" y="135.9" as="sourcePoint" />
            <mxPoint x="459" y="135.9" as="targetPoint" />
          </mxGeometry>
        </mxCell>
        <mxCell id="t303TAb1Uz-uj7NbguCg-65" value="&lt;font style=&quot;font-size: 12px;&quot; face=&quot;Merriweather&quot;&gt;Grid cells&lt;/font&gt;" style="edgeLabel;html=1;align=center;verticalAlign=middle;resizable=0;points=[];rotation=-90;" parent="t303TAb1Uz-uj7NbguCg-64" vertex="1" connectable="0">
          <mxGeometry x="-0.2039" y="-1" relative="1" as="geometry">
            <mxPoint x="4" y="-1" as="offset" />
          </mxGeometry>
        </mxCell>
        <mxCell id="t303TAb1Uz-uj7NbguCg-56" value="" style="rounded=0;whiteSpace=wrap;html=1;spacing=2;fillColor=#038571;strokeColor=none;rotation=90;" parent="1" vertex="1">
          <mxGeometry x="556.19" y="98.02999999999999" width="9" height="23.3" as="geometry" />
        </mxCell>
        <mxCell id="t303TAb1Uz-uj7NbguCg-57" value="" style="rounded=0;whiteSpace=wrap;html=1;spacing=2;fillColor=#038571;strokeColor=none;rotation=90;" parent="1" vertex="1">
          <mxGeometry x="562.33" y="117.2" width="9" height="10.87" as="geometry" />
        </mxCell>
        <mxCell id="t303TAb1Uz-uj7NbguCg-60" value="" style="endArrow=none;html=1;rounded=0;" parent="1" edge="1">
          <mxGeometry width="50" height="50" relative="1" as="geometry">
            <mxPoint x="572.54" y="129" as="sourcePoint" />
            <mxPoint x="572.54" y="104" as="targetPoint" />
          </mxGeometry>
        </mxCell>
        <mxCell id="QjK34CqmBnWzvoBw2y0X-1" value="" style="whiteSpace=wrap;html=1;aspect=fixed;fillColor=light-dark(#a76119, #272727);fontFamily=Merriweather;" parent="1" vertex="1">
          <mxGeometry x="215" y="103.05" width="14" height="14" as="geometry" />
        </mxCell>
        <mxCell id="QjK34CqmBnWzvoBw2y0X-2" value="" style="whiteSpace=wrap;html=1;aspect=fixed;fillColor=#038571;fontFamily=Merriweather;" parent="1" vertex="1">
          <mxGeometry x="166" y="103.05" width="14" height="14" as="geometry" />
        </mxCell>
        <mxCell id="QjK34CqmBnWzvoBw2y0X-3" value="P2N" style="text;html=1;align=center;verticalAlign=middle;whiteSpace=wrap;rounded=0;fontFamily=Merriweather;fontSize=14;" parent="1" vertex="1">
          <mxGeometry x="231.39" y="107.05" width="25.61" height="8" as="geometry" />
        </mxCell>
        <mxCell id="QjK34CqmBnWzvoBw2y0X-4" value="N2P" style="text;html=1;align=center;verticalAlign=middle;whiteSpace=wrap;rounded=0;fontFamily=Merriweather;fontSize=14;" parent="1" vertex="1">
          <mxGeometry x="180.28" y="106.05" width="29.72" height="8" as="geometry" />
        </mxCell>
        <mxCell id="QjK34CqmBnWzvoBw2y0X-5" value="&lt;div style=&quot;line-height: 90%;&quot;&gt;One variable&lt;div&gt;One species&lt;/div&gt;&lt;/div&gt;" style="text;html=1;align=center;verticalAlign=middle;whiteSpace=wrap;rounded=0;fontFamily=Merriweather;" parent="1" vertex="1">
          <mxGeometry x="172.19" y="119" width="67.62" height="23.83" as="geometry" />
        </mxCell>
        <mxCell id="QjK34CqmBnWzvoBw2y0X-76" value="" style="edgeStyle=elbowEdgeStyle;elbow=vertical;endArrow=none;html=1;curved=0;rounded=0;endSize=2;startSize=2;startFill=1;startArrow=oval;exitX=0.3;exitY=0.497;exitDx=0;exitDy=0;exitPerimeter=0;" parent="1" edge="1">
          <mxGeometry width="50" height="50" relative="1" as="geometry">
            <mxPoint x="364" y="120" as="sourcePoint" />
            <mxPoint x="364" y="136" as="targetPoint" />
            <Array as="points">
              <mxPoint x="410" y="130" />
            </Array>
          </mxGeometry>
        </mxCell>
        <mxCell id="QjK34CqmBnWzvoBw2y0X-77" value="" style="edgeStyle=elbowEdgeStyle;elbow=vertical;endArrow=none;html=1;curved=0;rounded=0;endSize=2;startSize=2;startFill=1;startArrow=oval;" parent="1" edge="1">
          <mxGeometry width="50" height="50" relative="1" as="geometry">
            <mxPoint x="385" y="120" as="sourcePoint" />
            <mxPoint x="385" y="136" as="targetPoint" />
            <Array as="points" />
          </mxGeometry>
        </mxCell>
        <mxCell id="QjK34CqmBnWzvoBw2y0X-80" value="" style="edgeStyle=elbowEdgeStyle;elbow=vertical;endArrow=none;html=1;curved=0;rounded=0;endSize=2;startSize=2;startFill=1;startArrow=oval;" parent="1" edge="1">
          <mxGeometry width="50" height="50" relative="1" as="geometry">
            <mxPoint x="344" y="151" as="sourcePoint" />
            <mxPoint x="420" y="136" as="targetPoint" />
            <Array as="points">
              <mxPoint x="390" y="136" />
            </Array>
          </mxGeometry>
        </mxCell>
        <mxCell id="QjK34CqmBnWzvoBw2y0X-82" value="" style="edgeStyle=elbowEdgeStyle;elbow=vertical;endArrow=none;html=1;curved=0;rounded=0;endSize=2;startSize=2;startFill=1;startArrow=oval;" parent="1" edge="1">
          <mxGeometry width="50" height="50" relative="1" as="geometry">
            <mxPoint x="364" y="151" as="sourcePoint" />
            <mxPoint x="364" y="135" as="targetPoint" />
            <Array as="points">
              <mxPoint x="410" y="136.7" />
            </Array>
          </mxGeometry>
        </mxCell>
        <mxCell id="QjK34CqmBnWzvoBw2y0X-83" value="" style="edgeStyle=elbowEdgeStyle;elbow=vertical;endArrow=none;html=1;curved=0;rounded=0;endSize=2;startSize=2;startFill=1;startArrow=oval;" parent="1" edge="1">
          <mxGeometry width="50" height="50" relative="1" as="geometry">
            <mxPoint x="403.93" y="151" as="sourcePoint" />
            <mxPoint x="403.93" y="136" as="targetPoint" />
            <Array as="points">
              <mxPoint x="449.93" y="136.51999999999998" />
            </Array>
          </mxGeometry>
        </mxCell>
        <mxCell id="5hGx_t09uoVu_bXs3V6K-78" value="" style="endArrow=none;html=1;rounded=0;" parent="1" edge="1">
          <mxGeometry width="50" height="50" relative="1" as="geometry">
            <mxPoint x="549.04" y="170.74" as="sourcePoint" />
            <mxPoint x="599.04" y="170.74" as="targetPoint" />
          </mxGeometry>
        </mxCell>
        <mxCell id="5hGx_t09uoVu_bXs3V6K-79" value="" style="rounded=0;whiteSpace=wrap;html=1;spacing=2;fillColor=#A76119;strokeColor=none;rotation=90;" parent="1" vertex="1">
          <mxGeometry x="582.39" y="141.1" width="9" height="21.2" as="geometry" />
        </mxCell>
        <mxCell id="5hGx_t09uoVu_bXs3V6K-80" value="" style="rounded=0;whiteSpace=wrap;html=1;spacing=2;fillColor=#A76119;strokeColor=none;rotation=90;" parent="1" vertex="1">
          <mxGeometry x="582.46" y="156.05" width="9" height="17.23" as="geometry" />
        </mxCell>
        <mxCell id="5hGx_t09uoVu_bXs3V6K-81" value="" style="rounded=0;whiteSpace=wrap;html=1;spacing=2;fillColor=#038571;strokeColor=none;rotation=90;" parent="1" vertex="1">
          <mxGeometry x="552.67" y="142.5" width="9" height="18.25" as="geometry" />
        </mxCell>
        <mxCell id="5hGx_t09uoVu_bXs3V6K-82" value="" style="rounded=0;whiteSpace=wrap;html=1;spacing=2;fillColor=#038571;strokeColor=none;rotation=90;" parent="1" vertex="1">
          <mxGeometry x="560.89" y="159.56" width="9" height="9.99" as="geometry" />
        </mxCell>
        <mxCell id="5hGx_t09uoVu_bXs3V6K-83" value="" style="endArrow=none;html=1;rounded=0;" parent="1" edge="1">
          <mxGeometry width="50" height="50" relative="1" as="geometry">
            <mxPoint x="571.54" y="170.92000000000002" as="sourcePoint" />
            <mxPoint x="571.54" y="145.92000000000002" as="targetPoint" />
          </mxGeometry>
        </mxCell>
        <mxCell id="5hGx_t09uoVu_bXs3V6K-84" value="" style="endArrow=none;html=1;rounded=0;entryX=0;entryY=0.75;entryDx=0;entryDy=0;exitX=1;exitY=0.75;exitDx=0;exitDy=0;" parent="1" source="5hGx_t09uoVu_bXs3V6K-79" target="5hGx_t09uoVu_bXs3V6K-79" edge="1">
          <mxGeometry width="50" height="50" relative="1" as="geometry">
            <mxPoint x="585.36" y="157.16000000000003" as="sourcePoint" />
            <mxPoint x="585.82" y="146.24" as="targetPoint" />
          </mxGeometry>
        </mxCell>
        <mxCell id="5hGx_t09uoVu_bXs3V6K-85" value="" style="endArrow=none;html=1;rounded=0;entryX=0;entryY=0.5;entryDx=0;entryDy=0;exitX=1;exitY=0.5;exitDx=0;exitDy=0;" parent="1" source="5hGx_t09uoVu_bXs3V6K-80" target="5hGx_t09uoVu_bXs3V6K-80" edge="1">
          <mxGeometry width="50" height="50" relative="1" as="geometry">
            <mxPoint x="592" y="166" as="sourcePoint" />
            <mxPoint x="592" y="157" as="targetPoint" />
          </mxGeometry>
        </mxCell>
        <mxCell id="5hGx_t09uoVu_bXs3V6K-86" value="" style="endArrow=none;html=1;rounded=0;entryX=0;entryY=0.5;entryDx=0;entryDy=0;exitX=1;exitY=0.75;exitDx=0;exitDy=0;" parent="1" target="5hGx_t09uoVu_bXs3V6K-81" edge="1">
          <mxGeometry width="50" height="50" relative="1" as="geometry">
            <mxPoint x="557.19" y="156.48" as="sourcePoint" />
            <mxPoint x="557.19" y="147.48" as="targetPoint" />
          </mxGeometry>
        </mxCell>
        <mxCell id="5hGx_t09uoVu_bXs3V6K-87" value="" style="endArrow=none;html=1;rounded=0;entryX=0;entryY=0.75;entryDx=0;entryDy=0;exitX=1;exitY=0.75;exitDx=0;exitDy=0;" parent="1" edge="1">
          <mxGeometry width="50" height="50" relative="1" as="geometry">
            <mxPoint x="566.54" y="169.05" as="sourcePoint" />
            <mxPoint x="566.54" y="160.05" as="targetPoint" />
          </mxGeometry>
        </mxCell>
        <mxCell id="ad7s8yUNEoWnW1eyCT8i-1" value="&lt;div style=&quot;line-height: 100%;&quot;&gt;% (Median, IQR)&lt;/div&gt;" style="text;align=center;verticalAlign=middle;rounded=0;fontFamily=Merriweather;spacing=0;horizontal=1;whiteSpace=wrap;html=1;imageHeight=24;imageWidth=24;strokeOpacity=100;arcSize=12;" parent="1" vertex="1">
          <mxGeometry x="531.4" y="169.8" width="91.81" height="14" as="geometry" />
        </mxCell>
      </root>
    </mxGraphModel>
  </diagram>
</mxfile>
